<svg width="38" height="38" viewBox="0 0 38 38" fill="none" xmlns="http://www.w3.org/2000/svg">
<g id="038-heart 1">
<path id="Vector" d="M7.79803 29.6082C7.84581 29.6574 7.90283 29.6966 7.96582 29.7236C8.02882 29.7506 8.09653 29.7649 8.16507 29.7656C8.2336 29.7663 8.30161 29.7535 8.36515 29.7278C8.4287 29.7021 8.48655 29.6641 8.53535 29.616C8.58415 29.5679 8.62294 29.5106 8.6495 29.4474C8.67606 29.3842 8.68985 29.3164 8.69008 29.2478C8.69031 29.1793 8.67698 29.1114 8.65085 29.048C8.62472 28.9847 8.58632 28.9271 8.53784 28.8786C6.22894 26.5315 4.79957 23.4603 4.49054 20.1824C4.1815 16.9045 5.01169 13.6203 6.84124 10.883C8.67078 8.14569 11.3879 6.12262 14.5348 5.1546C17.6817 4.18658 21.0661 4.33277 24.1178 5.56854L22.5697 8.87803C22.5262 8.9711 22.5112 9.07499 22.5267 9.17656C22.5422 9.27813 22.5875 9.37282 22.6568 9.44867C22.7261 9.52451 22.8164 9.57809 22.9162 9.60264C23.0159 9.62719 23.1208 9.62161 23.2174 9.5866L28.4782 7.67917C28.5424 7.65596 28.6013 7.62032 28.6517 7.57431C28.7021 7.52831 28.743 7.47282 28.7719 7.41102C28.8008 7.34923 28.8173 7.28234 28.8204 7.21417C28.8235 7.146 28.8132 7.07789 28.7899 7.01373L26.8823 1.75266C26.8473 1.65604 26.7844 1.57198 26.7016 1.51111C26.6188 1.45024 26.5198 1.41529 26.4171 1.41068C26.3145 1.40607 26.2127 1.43201 26.1248 1.48522C26.0369 1.53843 25.9667 1.61652 25.9232 1.70961L24.5589 4.62641C21.286 3.28746 17.6513 3.11913 14.2687 4.14983C10.8861 5.18054 7.96284 7.34712 5.99271 10.2836C4.02259 13.2201 3.12632 16.7466 3.45529 20.2675C3.78426 23.7883 5.3183 27.0877 7.79833 29.6084L7.79803 29.6082ZM26.3331 3.28594L27.636 6.87932L24.0427 8.18223L26.3331 3.28594Z" fill="#1FA3B1"/>
<path id="Vector_2" d="M33.4835 17.5641C33.7604 20.029 33.3921 22.5235 32.4148 24.8033C31.4375 27.083 29.8846 29.0697 27.9083 30.5686C25.9321 32.0676 23.6003 33.0273 21.1415 33.3539C18.6827 33.6804 16.1813 33.3625 13.8823 32.4313L15.4304 29.1218C15.474 29.0287 15.4889 28.9248 15.4734 28.8232C15.4579 28.7217 15.4127 28.627 15.3433 28.5511C15.274 28.4753 15.1838 28.4217 15.084 28.3971C14.9842 28.3726 14.8794 28.3782 14.7828 28.4132L9.52197 30.3206C9.4578 30.3438 9.39883 30.3795 9.34844 30.4255C9.29804 30.4715 9.25721 30.527 9.22826 30.5888C9.19931 30.6506 9.18282 30.7175 9.17973 30.7856C9.17664 30.8538 9.18701 30.9219 9.21025 30.9861L11.1177 36.2469C11.1527 36.3435 11.2156 36.4276 11.2984 36.4884C11.3812 36.5493 11.4801 36.5842 11.5828 36.5888C11.5907 36.5888 11.5984 36.5894 11.6063 36.5894C11.705 36.5893 11.8017 36.5612 11.8851 36.5081C11.9684 36.4551 12.0349 36.3794 12.0767 36.29L13.4412 33.3743C16.7145 34.7133 20.3498 34.8814 23.7327 33.8502C27.1157 32.819 30.0391 30.6518 32.009 27.7145C33.9789 24.7773 34.8746 21.2501 34.5447 17.7289C34.2149 14.2076 32.6798 10.9082 30.1986 8.38786C30.1509 8.33871 30.0938 8.2995 30.0308 8.27249C29.9678 8.24548 29.9001 8.23121 29.8315 8.2305C29.763 8.22978 29.695 8.24264 29.6314 8.26834C29.5679 8.29403 29.51 8.33205 29.4612 8.38019C29.4124 8.42834 29.3736 8.48567 29.3471 8.54888C29.3206 8.61209 29.3068 8.67992 29.3066 8.74847C29.3064 8.81702 29.3198 8.88494 29.3459 8.9483C29.3721 9.01166 29.4105 9.06922 29.4591 9.11765C31.705 11.4055 33.1216 14.3786 33.4835 17.5641ZM11.6677 34.7138L10.3648 31.1205L13.9581 29.8176L11.6677 34.7138Z" fill="#1FA3B1"/>
<path id="Vector_3" d="M18.7176 26.3961C18.8019 26.4506 18.9003 26.4796 19.0007 26.4794C19.1011 26.4793 19.1994 26.45 19.2835 26.3952C19.5838 26.1993 26.6442 21.538 26.6442 16.2794C26.6442 13.9735 25.2135 11.5228 22.5621 11.5228C21.8363 11.5232 21.1237 11.717 20.4976 12.0842C19.8715 12.4515 19.3546 12.9789 19 13.6122C18.6458 12.9783 18.1289 12.4503 17.5028 12.0825C16.8766 11.7148 16.1637 11.5206 15.4375 11.52C12.6177 11.52 11.3555 13.9106 11.3555 16.2799C11.3551 21.5698 18.4168 26.2015 18.7176 26.3961ZM13.1067 13.7182C13.641 12.949 14.4248 12.5591 15.4371 12.5591C16.2441 12.5602 17.0177 12.8815 17.5882 13.4523C18.1587 14.0231 18.4794 14.7969 18.4801 15.6039C18.4801 15.7417 18.5348 15.8738 18.6323 15.9713C18.7297 16.0687 18.8618 16.1234 18.9996 16.1234C19.1374 16.1234 19.2696 16.0687 19.367 15.9713C19.4644 15.8738 19.5192 15.7417 19.5192 15.6039C19.5202 14.7973 19.8412 14.024 20.4116 13.4537C20.9821 12.8834 21.7555 12.5626 22.5621 12.5618C23.7239 12.5618 24.4301 13.1965 24.818 13.7288C25.3182 14.4156 25.6051 15.3452 25.6051 16.2794C25.6051 20.4227 20.2947 24.4177 18.9982 25.3306C17.8599 24.5303 16.7916 23.6347 15.805 22.6534C12.9859 19.8262 12.3942 17.6267 12.3942 16.2799C12.3942 15.2897 12.6472 14.38 13.1067 13.7182Z" fill="#C3007D"/>
<path id="Vector_4" d="M18.032 22.6536C15.2128 19.8262 14.6211 17.6267 14.6211 16.2799C14.6211 15.2897 14.8742 14.3799 15.3336 13.7182C15.6247 13.286 16.0398 12.9522 16.5244 12.7607C16.1775 12.6273 15.8091 12.5589 15.4375 12.5591C14.4253 12.5591 13.6414 12.949 13.107 13.7182C12.6475 14.38 12.3945 15.2897 12.3945 16.2799C12.3945 17.627 12.9863 19.8262 15.8054 22.6536C16.792 23.6348 17.8603 24.5304 18.9986 25.3306C19.2448 25.1571 19.636 24.8724 20.1079 24.4967C19.3809 23.923 18.6878 23.3076 18.032 22.6536Z" fill="#D4E1F4"/>
</g>
</svg>
