<svg width="38" height="38" viewBox="0 0 38 38" fill="none" xmlns="http://www.w3.org/2000/svg">
<g id="071-operation-1 1">
<path id="Vector" d="M20.0018 7.27344H17.0331C15.5354 7.27344 14.4206 8.03099 13.8768 8.74C13.779 8.86758 13.6196 9.21062 13.4678 9.57422H16.4365C16.5884 9.21055 16.7477 8.86758 16.8455 8.74C17.3893 8.03099 18.504 7.27344 20.0018 7.27344Z" fill="#D4E1F4"/>
<path id="Vector_2" d="M9.83399 32.1392C9.39361 32.1392 8.96313 32.2697 8.59697 32.5144C8.23082 32.7591 7.94543 33.1068 7.77691 33.5137C7.60839 33.9205 7.56429 34.3682 7.65021 34.8001C7.73612 35.232 7.94818 35.6288 8.25957 35.9402C8.57096 36.2515 8.96769 36.4636 9.3996 36.5495C9.83152 36.6354 10.2792 36.5913 10.6861 36.4228C11.0929 36.2543 11.4406 35.9689 11.6853 35.6027C11.93 35.2366 12.0605 34.8061 12.0605 34.3657C12.06 33.7754 11.8252 33.2094 11.4078 32.792C10.9903 32.3745 10.4243 32.1397 9.83399 32.1392ZM9.83399 35.5526C9.59912 35.5526 9.36953 35.483 9.17425 35.3525C8.97896 35.222 8.82676 35.0366 8.73688 34.8196C8.647 34.6026 8.62348 34.3638 8.6693 34.1335C8.71512 33.9031 8.82822 33.6915 8.9943 33.5254C9.16037 33.3594 9.37196 33.2463 9.60232 33.2005C9.83267 33.1546 10.0714 33.1781 10.2884 33.268C10.5054 33.3579 10.6909 33.5101 10.8214 33.7054C10.9518 33.9007 11.0215 34.1303 11.0215 34.3651C11.0212 34.68 10.896 34.9819 10.6734 35.2045C10.4507 35.4272 10.1488 35.5524 9.83399 35.5526Z" fill="#1FA3B1"/>
<path id="Vector_3" d="M28.166 32.1392C27.7256 32.1392 27.2952 32.2697 26.929 32.5144C26.5628 32.7591 26.2775 33.1068 26.1089 33.5137C25.9404 33.9205 25.8963 34.3682 25.9822 34.8001C26.0682 35.232 26.2802 35.6288 26.5916 35.9402C26.903 36.2515 27.2997 36.4636 27.7316 36.5495C28.1636 36.6354 28.6112 36.5913 29.0181 36.4228C29.4249 36.2543 29.7727 35.9689 30.0173 35.6027C30.262 35.2366 30.3926 34.8061 30.3926 34.3657C30.392 33.7754 30.1572 33.2094 29.7398 32.792C29.3224 32.3745 28.7564 32.1397 28.166 32.1392ZM28.166 35.5526C27.9312 35.5526 27.7016 35.483 27.5063 35.3525C27.311 35.222 27.1588 35.0366 27.0689 34.8196C26.979 34.6026 26.9555 34.3638 27.0013 34.1335C27.0472 33.9031 27.1603 33.6915 27.3263 33.5254C27.4924 33.3594 27.704 33.2463 27.9344 33.2005C28.1647 33.1546 28.4035 33.1781 28.6205 33.268C28.8374 33.3579 29.0229 33.5101 29.1534 33.7054C29.2839 33.9007 29.3535 34.1303 29.3535 34.3651C29.3533 34.68 29.2281 34.9819 29.0054 35.2045C28.7828 35.4272 28.4809 35.5524 28.166 35.5526Z" fill="#1FA3B1"/>
<path id="Vector_4" d="M21.041 7.27344C21.1788 7.27344 21.3109 7.2187 21.4084 7.12127C21.5058 7.02384 21.5605 6.89169 21.5605 6.75391V4.75C21.5603 4.53355 21.4742 4.32605 21.3211 4.173C21.1681 4.01994 20.9606 3.93385 20.7441 3.93359H19.5566V1.92969C19.5566 1.7919 19.5019 1.65975 19.4045 1.56232C19.307 1.46489 19.1749 1.41016 19.0371 1.41016C18.8993 1.41016 18.7672 1.46489 18.6697 1.56232C18.5723 1.65975 18.5176 1.7919 18.5176 1.92969V3.93359H17.3301C17.1136 3.93385 16.9061 4.01994 16.7531 4.173C16.6 4.32605 16.5139 4.53355 16.5137 4.75V6.75391C16.5137 6.89169 16.5684 7.02384 16.6658 7.12127C16.7633 7.2187 16.8954 7.27344 17.0332 7.27344C17.171 7.27344 17.3031 7.2187 17.4006 7.12127C17.498 7.02384 17.5527 6.89169 17.5527 6.75391V4.97266H20.5215V6.75391C20.5215 6.89169 20.5762 7.02384 20.6737 7.12127C20.7711 7.2187 20.9032 7.27344 21.041 7.27344Z" fill="#1FA3B1"/>
<path id="Vector_5" d="M34.9199 21.2266H9.61133V19.668C9.61107 19.4515 9.52498 19.244 9.37193 19.091C9.21888 18.9379 9.01137 18.8518 8.79492 18.8516H4.11914C3.90269 18.8518 3.69519 18.9379 3.54214 19.091C3.38909 19.244 3.30299 19.4515 3.30273 19.668V21.2266H3.08008C2.86363 21.2268 2.65612 21.3129 2.50307 21.466C2.35002 21.619 2.26393 21.8265 2.26367 22.043V23.2305C2.26393 23.4469 2.35002 23.6544 2.50307 23.8075C2.65612 23.9605 2.86363 24.0466 3.08008 24.0469H34.9199C35.1364 24.0466 35.3439 23.9605 35.4969 23.8075C35.65 23.6544 35.7361 23.4469 35.7363 23.2305V22.043C35.7361 21.8265 35.65 21.619 35.4969 21.466C35.3439 21.3129 35.1364 21.2268 34.9199 21.2266ZM4.3418 19.8906H8.57227V21.2266H4.3418V19.8906ZM34.6973 23.0078H3.30273V22.2656H34.6973V23.0078Z" fill="#1FA3B1"/>
<path id="Vector_6" d="M27.8691 28.6484H24.1582V23.5273C24.1582 23.3896 24.1035 23.2574 24.006 23.16C23.9086 23.0625 23.7765 23.0078 23.6387 23.0078C23.5009 23.0078 23.3687 23.0625 23.2713 23.16C23.1739 23.2574 23.1191 23.3896 23.1191 23.5273V28.6484H14.8809V23.5273C14.8809 23.3896 14.8261 23.2574 14.7287 23.16C14.6313 23.0625 14.4991 23.0078 14.3613 23.0078C14.2235 23.0078 14.0914 23.0625 13.994 23.16C13.8965 23.2574 13.8418 23.3896 13.8418 23.5273V28.6484H10.1309C9.91441 28.6487 9.70691 28.7348 9.55386 28.8878C9.4008 29.0409 9.31471 29.2484 9.31445 29.4648V33.918C9.31445 34.0558 9.36919 34.1879 9.46662 34.2853C9.56405 34.3828 9.6962 34.4375 9.83398 34.4375C9.97177 34.4375 10.1039 34.3828 10.2013 34.2853C10.2988 34.1879 10.3535 34.0558 10.3535 33.918V31.4688H27.6465V33.918C27.6465 34.0558 27.7012 34.1879 27.7987 34.2853C27.8961 34.3828 28.0282 34.4375 28.166 34.4375C28.3038 34.4375 28.4359 34.3828 28.5334 34.2853C28.6308 34.1879 28.6855 34.0558 28.6855 33.918V29.4648C28.6853 29.2484 28.5992 29.0409 28.4461 28.8878C28.2931 28.7348 28.0856 28.6487 27.8691 28.6484ZM27.6465 30.4297H10.3535V29.6875H27.6465V30.4297Z" fill="#C3007D"/>
<path id="Vector_7" d="M12.7063 10.6133H25.5965C25.6801 10.6133 25.7624 10.5932 25.8365 10.5546C25.9106 10.516 25.9744 10.4601 26.0223 10.3916C26.0702 10.3231 26.1009 10.2441 26.1117 10.1612C26.1226 10.0784 26.1133 9.99413 26.0846 9.91563C26.001 9.68629 25.568 8.52143 25.2505 8.10743C24.5585 7.20545 22.9479 6.23438 21.047 6.23438H17.0333C15.1576 6.23438 13.7471 7.20204 13.0525 8.10766C12.7351 8.52165 12.302 9.68659 12.2184 9.91585C12.1898 9.99432 12.1806 10.0785 12.1914 10.1613C12.2023 10.2442 12.233 10.3231 12.2808 10.3916C12.3287 10.46 12.3924 10.5159 12.4665 10.5545C12.5405 10.5931 12.6228 10.6132 12.7063 10.6133ZM13.8768 8.74C14.4208 8.03099 15.5354 7.27344 17.0333 7.27344H21.047C22.5269 7.27344 23.8673 8.01117 24.426 8.74C24.5237 8.86743 24.6831 9.21047 24.835 9.57422H13.4678C13.6197 9.21055 13.779 8.86758 13.8768 8.74H13.8768Z" fill="#C3007D"/>
</g>
</svg>
