<svg width="38" height="38" viewBox="0 0 38 38" fill="none" xmlns="http://www.w3.org/2000/svg">
<g id="079-scissor-1 1">
<path id="Vector" d="M21.759 32.9737C21.5098 32.9738 21.2646 32.9114 21.0459 32.7922C20.8271 32.6729 20.6418 32.5007 20.5068 32.2913C20.3719 32.0819 20.2916 31.842 20.2734 31.5935C20.2552 31.345 20.2997 31.096 20.4027 30.8691C20.1825 30.968 19.9897 31.1189 19.8407 31.3088C19.6918 31.4986 19.5912 31.7219 19.5475 31.9592C19.5039 32.1966 19.5185 32.441 19.5902 32.6714C19.6619 32.9019 19.7884 33.1114 19.959 33.2822C20.1296 33.4529 20.3391 33.5797 20.5694 33.6515C20.7998 33.7234 21.0442 33.7383 21.2816 33.6949C21.519 33.6514 21.7423 33.551 21.9323 33.4022C22.1223 33.2534 22.2734 33.0607 22.3725 32.8407C22.1798 32.9283 21.9706 32.9736 21.759 32.9737Z" fill="#D4E1F4"/>
<path id="Vector_2" d="M33.0402 21.6924C32.7911 21.6925 32.5459 21.6301 32.3271 21.5109C32.1084 21.3917 31.923 21.2195 31.7881 21.0101C31.6531 20.8007 31.5729 20.5607 31.5547 20.3123C31.5365 20.0638 31.5809 19.8147 31.6839 19.5879C31.4638 19.6868 31.271 19.8376 31.122 20.0275C30.973 20.2174 30.8724 20.4406 30.8288 20.678C30.7851 20.9153 30.7998 21.1597 30.8715 21.3902C30.9431 21.6206 31.0697 21.8302 31.2403 22.0009C31.4108 22.1716 31.6203 22.2984 31.8507 22.3703C32.0811 22.4422 32.3255 22.457 32.5629 22.4136C32.8003 22.3702 33.0236 22.2698 33.2136 22.121C33.4036 21.9722 33.5546 21.7795 33.6537 21.5594C33.461 21.647 33.2519 21.6924 33.0402 21.6924Z" fill="#D4E1F4"/>
<path id="Vector_3" d="M2.67847 6.19099C2.7107 6.2609 2.75806 6.32278 2.81711 6.37216L10.2349 12.572L18.4496 25.0853L18.2318 29.0906C18.228 29.1587 18.2378 29.2269 18.2604 29.2913C18.2831 29.3556 18.3182 29.4149 18.3638 29.4657C18.4093 29.5165 18.4644 29.5578 18.5259 29.5873C18.5875 29.6168 18.6542 29.6339 18.7223 29.6376C18.732 29.6381 18.7415 29.6383 18.7511 29.6383C18.8839 29.6382 19.0116 29.5872 19.108 29.4958C19.2044 29.4045 19.2621 29.2796 19.2693 29.147L19.4679 25.4963L21.3843 25.6241L21.4633 28.5261C21.4652 28.5943 21.4804 28.6615 21.5083 28.7238C21.5361 28.7861 21.5759 28.8424 21.6255 28.8893C21.675 28.9362 21.7333 28.9729 21.7971 28.9973C21.8608 29.0217 21.9288 29.0333 21.997 29.0315C22.0652 29.0296 22.1324 29.0143 22.1947 28.9865C22.257 28.9587 22.3133 28.9189 22.3602 28.8693C22.4071 28.8198 22.4438 28.7614 22.4682 28.6977C22.4926 28.634 22.5042 28.566 22.5024 28.4978L22.4104 25.1231C22.4104 25.1206 22.41 25.1182 22.4099 25.1157C22.4099 25.1111 22.4092 25.1065 22.4089 25.1019C22.4076 25.0839 22.4055 25.066 22.4024 25.0482C22.4017 25.0437 22.4011 25.0393 22.4002 25.0348C22.3959 25.0137 22.3904 24.9928 22.3836 24.9723C22.3826 24.9693 22.3814 24.9664 22.3804 24.9635C22.3737 24.9449 22.366 24.9267 22.3573 24.909C22.3557 24.9056 22.3542 24.9021 22.3524 24.8986C22.3424 24.8793 22.3311 24.8606 22.3188 24.8427C22.3178 24.8413 22.3172 24.8399 22.3162 24.8385L16.5643 16.649L24.9055 22.1717C24.907 22.1727 24.9086 22.1733 24.9101 22.1743C24.9291 22.1867 24.949 22.1978 24.9695 22.2075C24.9712 22.2083 24.9728 22.2093 24.9745 22.21C24.9953 22.2195 25.0166 22.2277 25.0384 22.2343L25.0504 22.2378C25.0724 22.2442 25.0947 22.2492 25.1172 22.2527H25.1204C25.1346 22.2547 25.1491 22.2563 25.1637 22.2571L28.5421 22.4462C28.552 22.4467 28.5619 22.4469 28.5718 22.4469C28.707 22.4467 28.8369 22.3939 28.9337 22.2995C29.0306 22.2052 29.0869 22.0768 29.0906 21.9416C29.0943 21.8065 29.0451 21.6752 28.9536 21.5757C28.8621 21.4761 28.7353 21.4162 28.6003 21.4087L25.6797 21.2454L25.5535 19.4127L29.2029 19.2142C29.2714 19.211 29.3385 19.1943 29.4005 19.165C29.4624 19.1357 29.518 19.0944 29.5639 19.0435C29.6099 18.9927 29.6453 18.9332 29.6682 18.8686C29.691 18.804 29.7009 18.7355 29.6972 18.6671C29.6935 18.5986 29.6762 18.5316 29.6465 18.4699C29.6168 18.4081 29.5751 18.3529 29.5239 18.3073C29.4727 18.2617 29.413 18.2267 29.3483 18.2043C29.2835 18.1819 29.2149 18.1725 29.1465 18.1767L25.1257 18.3953L15.1322 12.5901L5.46264 2.01574C5.38875 1.93488 5.29117 1.87947 5.18387 1.85743L3.06122 1.42103C2.95536 1.39928 2.84536 1.41109 2.74653 1.4548C2.6477 1.49852 2.56496 1.57196 2.50983 1.66491C2.4547 1.75786 2.42993 1.86568 2.43897 1.97337C2.448 2.08106 2.4904 2.18325 2.56024 2.26571L4.44183 4.48656L2.18685 2.79081C2.09441 2.72144 1.98148 2.68487 1.86592 2.68689C1.75037 2.68891 1.63879 2.7294 1.54883 2.80196C1.45887 2.87451 1.39568 2.975 1.36924 3.0875C1.34281 3.20001 1.35464 3.31812 1.40287 3.42315L2.67847 6.19099ZM15.1205 14.4469L15.2078 13.8357L24.4988 19.2334L24.6016 20.7244L15.1205 14.4469ZM4.80951 2.84128L14.2534 13.1689L14.0456 14.6253C14.045 14.6292 14.0449 14.6332 14.0445 14.6371C14.0434 14.6464 14.0425 14.6556 14.0418 14.665C14.0414 14.6724 14.0411 14.6802 14.041 14.6879C14.0408 14.6955 14.041 14.705 14.041 14.7135C14.041 14.7221 14.0418 14.7302 14.0424 14.7384C14.043 14.7466 14.0437 14.7543 14.0446 14.7621C14.0456 14.77 14.0472 14.7794 14.0486 14.788C14.05 14.7955 14.0512 14.8029 14.0529 14.8103C14.0548 14.819 14.0571 14.8275 14.0594 14.8361C14.0615 14.8435 14.0634 14.8509 14.0658 14.8583C14.0682 14.8658 14.0714 14.8745 14.0745 14.8825C14.0775 14.8905 14.0801 14.8974 14.0833 14.9048C14.0865 14.9122 14.09 14.9196 14.0936 14.9271C14.0972 14.9345 14.101 14.9426 14.1053 14.9501C14.1096 14.9577 14.1128 14.9631 14.1169 14.9696C14.1217 14.9774 14.1265 14.9852 14.1318 14.9929C14.1329 14.9944 14.1338 14.9962 14.1349 14.9977L20.8415 24.5469L19.2707 24.4421L11.2353 12.2024L11.5002 11.7338C11.5525 11.6413 11.5751 11.535 11.5651 11.4292C11.5551 11.3235 11.5129 11.2233 11.4442 11.1423L8.29906 7.43134C8.27298 7.3898 8.24112 7.35219 8.20443 7.31964L4.32516 2.74175L4.80951 2.84128ZM7.48102 8.07244L9.93061 10.9633L3.57318 5.64986L3.20884 4.85936L7.48102 8.07244Z" fill="#1FA3B1"/>
<path id="Vector_4" d="M19.2282 30.4365C18.8744 30.7903 18.6335 31.241 18.5359 31.7316C18.4383 32.2223 18.4884 32.7309 18.6799 33.1931C18.8713 33.6553 19.1955 34.0504 19.6115 34.3283C20.0275 34.6063 20.5165 34.7546 21.0168 34.7546C21.5171 34.7546 22.0062 34.6063 22.4221 34.3283C22.8381 34.0504 23.1623 33.6553 23.3538 33.1931C23.5452 32.7309 23.5953 32.2223 23.4977 31.7316C23.4002 31.241 23.1592 30.7903 22.8055 30.4365C22.3307 29.9628 21.6875 29.6968 21.0168 29.6968C20.3462 29.6968 19.7029 29.9628 19.2282 30.4365ZM22.0707 33.2791C21.8623 33.4873 21.5969 33.629 21.3079 33.6864C21.019 33.7438 20.7195 33.7142 20.4473 33.6014C20.1752 33.4886 19.9426 33.2977 19.7789 33.0527C19.6153 32.8077 19.528 32.5198 19.528 32.2252C19.528 31.9306 19.6153 31.6426 19.7789 31.3976C19.9426 31.1526 20.1752 30.9617 20.4473 30.8489C20.7195 30.7361 21.019 30.7065 21.3079 30.7639C21.5969 30.8213 21.8623 30.963 22.0707 31.1713C22.2103 31.309 22.3211 31.4731 22.3968 31.654C22.4724 31.8349 22.5113 32.0291 22.5113 32.2252C22.5113 32.4213 22.4724 32.6154 22.3968 32.7963C22.3211 32.9772 22.2103 33.1413 22.0707 33.2791Z" fill="#1FA3B1"/>
<path id="Vector_5" d="M32.2981 23.4737C32.8834 23.4738 33.4505 23.2708 33.9029 22.8996C34.3553 22.5283 34.665 22.0117 34.7791 21.4377C34.8933 20.8637 34.805 20.2679 34.5291 19.7517C34.2532 19.2356 33.8069 18.8311 33.2662 18.6071C32.7255 18.3832 32.1239 18.3536 31.5639 18.5235C31.0039 18.6933 30.52 19.0521 30.1949 19.5387C29.8697 20.0254 29.7234 20.6096 29.7807 21.1921C29.8381 21.7745 30.0956 22.319 30.5094 22.7328C30.7438 22.9685 31.0225 23.1553 31.3296 23.2825C31.6366 23.4097 31.9658 23.4747 32.2981 23.4737ZM31.2442 19.8902C31.4527 19.6818 31.7182 19.5398 32.0074 19.4823C32.2965 19.4247 32.5962 19.4542 32.8686 19.5671C33.141 19.6799 33.3738 19.8709 33.5376 20.116C33.7014 20.3612 33.7888 20.6493 33.7888 20.9441C33.7888 21.239 33.7014 21.5271 33.5376 21.7723C33.3738 22.0174 33.141 22.2084 32.8686 22.3212C32.5962 22.4341 32.2965 22.4636 32.0074 22.406C31.7182 22.3485 31.4527 22.2065 31.2442 21.9981C31.1052 21.86 30.995 21.6958 30.9197 21.5149C30.8444 21.334 30.8057 21.1401 30.8057 20.9441C30.8057 20.7482 30.8444 20.5543 30.9197 20.3734C30.995 20.1925 31.1052 20.0283 31.2442 19.8902Z" fill="#1FA3B1"/>
<path id="Vector_6" d="M21.0169 36.59C22.0267 36.59 23.0052 36.2399 23.7858 35.5993C24.5663 34.9587 25.1006 34.0673 25.2976 33.077C25.4947 32.0866 25.3422 31.0586 24.8662 30.168C24.3902 29.2775 23.6202 28.5795 22.6873 28.1931C21.7544 27.8067 20.7163 27.7557 19.75 28.0488C18.7837 28.3419 17.949 28.9609 17.388 29.8005C16.8269 30.6401 16.5744 31.6482 16.6734 32.6531C16.7723 33.6581 17.2166 34.5976 17.9306 35.3116C18.335 35.7182 18.8159 36.0405 19.3457 36.26C19.8755 36.4794 20.4435 36.5916 21.0169 36.59ZM18.6654 29.874C19.2094 29.3301 19.9251 28.9917 20.6907 28.9163C21.4562 28.841 22.2242 29.0334 22.8638 29.4608C23.5034 29.8882 23.975 30.5241 24.1982 31.2603C24.4215 31.9964 24.3826 32.7871 24.0882 33.4978C23.7938 34.2085 23.2621 34.7951 22.5837 35.1577C21.9053 35.5203 21.1222 35.6365 20.3677 35.4864C19.6132 35.3364 18.9341 34.9293 18.4461 34.3347C17.9581 33.7401 17.6914 32.9947 17.6914 32.2254C17.6908 31.7886 17.7766 31.3561 17.9437 30.9525C18.1109 30.549 18.3562 30.1825 18.6654 29.874Z" fill="#C3007D"/>
<path id="Vector_7" d="M32.2802 25.3243C33.2895 25.3237 34.2673 24.9732 35.0471 24.3325C35.8269 23.6917 36.3605 22.8005 36.5568 21.8105C36.7532 20.8205 36.6002 19.7931 36.124 18.9032C35.6478 18.0134 34.8778 17.3162 33.9451 16.9304C33.0125 16.5446 31.975 16.4941 31.0093 16.7876C30.0436 17.081 29.2096 17.7002 28.6492 18.5396C28.0889 19.379 27.8369 20.3867 27.9362 21.3911C28.0356 22.3955 28.4801 23.3343 29.194 24.0477C29.599 24.4533 30.0801 24.7748 30.6097 24.9939C31.1394 25.213 31.707 25.3252 32.2802 25.3243ZM29.9287 18.6103C30.3938 18.1452 30.9863 17.8285 31.6314 17.7002C32.2765 17.5719 32.9451 17.6378 33.5527 17.8895C34.1604 18.1412 34.6797 18.5674 35.0451 19.1143C35.4105 19.6611 35.6056 20.3041 35.6056 20.9618C35.6056 21.6195 35.4105 22.2624 35.0451 22.8093C34.6797 23.3561 34.1604 23.7824 33.5527 24.0341C32.9451 24.2858 32.2765 24.3516 31.6314 24.2233C30.9863 24.095 30.3938 23.7783 29.9287 23.3132C29.6173 23.0059 29.37 22.6398 29.2013 22.2361C29.0325 21.8325 28.9456 21.3993 28.9456 20.9618C28.9456 20.5242 29.0325 20.0911 29.2013 19.6874C29.37 19.2838 29.6173 18.9176 29.9287 18.6103Z" fill="#C3007D"/>
</g>
</svg>
