<svg width="38" height="38" viewBox="0 0 38 38" fill="none" xmlns="http://www.w3.org/2000/svg">
<g id="027-drips 1">
<path id="Vector" d="M21.0781 24.0359V10.6133C21.0781 10.5542 21.1016 10.4976 21.1433 10.4558C21.1851 10.4141 21.2417 10.3906 21.3008 10.3906H19.0742C19.0152 10.3906 18.9585 10.4141 18.9168 10.4558C18.875 10.4976 18.8516 10.5542 18.8516 10.6133V24.0359C18.8523 24.6882 19.1117 25.3135 19.5729 25.7747C20.0342 26.2359 20.6595 26.4954 21.3118 26.4961H23.5383C22.8861 26.4954 22.2607 26.2359 21.7995 25.7747C21.3383 25.3135 21.0789 24.6882 21.0781 24.0359Z" fill="#D4E1F4"/>
<path id="Vector_2" d="M17.8125 18.4805C17.8125 18.6183 17.8672 18.7504 17.9647 18.8478C18.0621 18.9453 18.1942 19 18.332 19H27.9805C28.1183 19 28.2504 18.9453 28.3478 18.8478C28.4453 18.7504 28.5 18.6183 28.5 18.4805C28.5 18.3427 28.4453 18.2105 28.3478 18.1131C28.2504 18.0157 28.1183 17.9609 27.9805 17.9609H18.332C18.1942 17.9609 18.0621 18.0157 17.9647 18.1131C17.8672 18.2105 17.8125 18.3427 17.8125 18.4805Z" fill="#C3007D"/>
<path id="Vector_3" d="M20.1875 27.3488V28.9236C20.1875 29.7466 20.7159 30.4738 21.4492 30.7865V32.4119C21.4502 32.7727 21.5657 33.1239 21.7791 33.4148C21.9925 33.7057 22.2928 33.9213 22.6367 34.0306V36.0703C22.6367 36.2081 22.6915 36.3402 22.7889 36.4377C22.8863 36.5351 23.0185 36.5898 23.1562 36.5898C23.294 36.5898 23.4262 36.5351 23.5236 36.4377C23.621 36.3402 23.6758 36.2081 23.6758 36.0703V34.0309C24.0197 33.9216 24.32 33.706 24.5334 33.4151C24.7468 33.1242 24.8623 32.773 24.8633 32.4122V30.8437C25.2573 30.7013 25.5974 30.4401 25.8367 30.0962C26.076 29.7523 26.2027 29.3426 26.1992 28.9236V27.3488C26.8911 27.1132 27.492 26.6672 27.9179 26.0731C28.3438 25.4791 28.5732 24.7668 28.5742 24.0359V10.6133C28.5738 10.2788 28.4408 9.95806 28.2043 9.72152C27.9677 9.48499 27.647 9.35194 27.3125 9.35156H23.75V6.38281C23.75 6.24502 23.6953 6.11288 23.5978 6.01545C23.5004 5.91802 23.3683 5.86328 23.2305 5.86328C23.0927 5.86328 22.9605 5.91802 22.8631 6.01545C22.7657 6.11288 22.7109 6.24502 22.7109 6.38281V9.35156H19.0742C18.7397 9.35194 18.419 9.48499 18.1825 9.72152C17.9459 9.95806 17.8129 10.2788 17.8125 10.6133V24.0359C17.8135 24.7668 18.043 25.4791 18.4688 26.0731C18.8947 26.6672 19.4956 27.1132 20.1875 27.3488ZM23.1562 33.0725C22.9801 33.0733 22.8109 33.0042 22.6856 32.8804C22.5604 32.7565 22.4894 32.588 22.4883 32.4119V30.9492H23.8242V32.4122C23.823 32.5883 23.752 32.7567 23.6268 32.8805C23.5015 33.0042 23.3323 33.0733 23.1562 33.0725ZM25.1602 28.9236C25.1602 29.4676 24.7476 29.9102 24.2407 29.9102H22.2411C21.7102 29.9102 21.2266 29.44 21.2266 28.9236V27.533C21.255 27.5337 21.2832 27.5352 21.3118 27.5352H25.0747C25.1032 27.5352 25.1314 27.5337 25.1599 27.533L25.1602 28.9236ZM18.8516 10.6133C18.8516 10.5542 18.875 10.4976 18.9168 10.4558C18.9585 10.4141 19.0152 10.3906 19.0742 10.3906H27.3125C27.3716 10.3906 27.4282 10.4141 27.4699 10.4558C27.5117 10.4976 27.5352 10.5542 27.5352 10.6133V24.0359C27.5344 24.6882 27.275 25.3135 26.8138 25.7747C26.3526 26.2359 25.7272 26.4954 25.075 26.4961H21.3121C20.6597 26.4954 20.0343 26.236 19.573 25.7748C19.1118 25.3136 18.8523 24.6882 18.8516 24.0359V10.6133Z" fill="#1FA3B1"/>
<path id="Vector_4" d="M9.94531 35.3281C10.0831 35.3281 10.2152 35.2734 10.3127 35.176C10.4101 35.0785 10.4648 34.9464 10.4648 34.8086V3.41406C10.4651 3.15826 10.5669 2.91302 10.7478 2.73214C10.9286 2.55126 11.1739 2.44951 11.4297 2.44922H20.2617C20.3208 2.44922 20.3774 2.47268 20.4192 2.51443C20.4609 2.55619 20.4844 2.61282 20.4844 2.67188V5.64062C20.4847 5.97514 20.6178 6.29585 20.8543 6.53238C21.0909 6.76892 21.4116 6.90197 21.7461 6.90234H25.0773C25.3641 6.90359 25.6427 6.80656 25.8667 6.6274C26.0906 6.44824 26.2465 6.19776 26.3082 5.91768L26.6549 4.37742C26.6852 4.24299 26.6608 4.10204 26.5871 3.98558C26.5135 3.86913 26.3966 3.7867 26.2621 3.75643C26.1277 3.72617 25.9868 3.75055 25.8703 3.82421C25.7538 3.89786 25.6714 4.01477 25.6412 4.1492L25.2945 5.68946C25.2836 5.73889 25.2561 5.78311 25.2166 5.81473C25.1771 5.84636 25.1279 5.8635 25.0773 5.86328H21.7461C21.687 5.86328 21.6304 5.83982 21.5886 5.79807C21.5469 5.75631 21.5234 5.69968 21.5234 5.64062V2.67188C21.5231 2.33736 21.39 2.01665 21.1535 1.78012C20.9169 1.54358 20.5962 1.41053 20.2617 1.41016H11.4297C10.8984 1.41075 10.389 1.62206 10.0134 1.99774C9.63768 2.37342 9.42637 2.88277 9.42578 3.41406V34.8086C9.42578 34.9464 9.48052 35.0785 9.57795 35.176C9.67538 35.2734 9.80752 35.3281 9.94531 35.3281Z" fill="#C3007D"/>
</g>
</svg>
