<svg width="38" height="38" viewBox="0 0 38 38" fill="none" xmlns="http://www.w3.org/2000/svg">
<g id="049-test-tube 1">
<path id="Vector" d="M3.93359 29.3906V28.0547V13.7305H2.44922V29.5391V30.875H35.5508V29.5391V29.3906H3.93359Z" fill="#D4E1F4"/>
<path id="Vector_2" d="M36.0703 29.0195H1.92969C1.7919 29.0195 1.65975 29.0743 1.56232 29.1717C1.46489 29.2691 1.41016 29.4013 1.41016 29.5391C1.41016 29.6769 1.46489 29.809 1.56232 29.9064C1.65975 30.0039 1.7919 30.0586 1.92969 30.0586H36.0703C36.2081 30.0586 36.3402 30.0039 36.4377 29.9064C36.5351 29.809 36.5898 29.6769 36.5898 29.5391C36.5898 29.4013 36.5351 29.2691 36.4377 29.1717C36.3402 29.0743 36.2081 29.0195 36.0703 29.0195Z" fill="#C3007D"/>
<path id="Vector_3" d="M35.9219 12.6912H30.0586V9.70166H30.1699C30.347 9.70146 30.5168 9.63103 30.642 9.5058C30.7673 9.38057 30.8377 9.21079 30.8379 9.03369V7.104C30.8377 6.92691 30.7673 6.75712 30.642 6.6319C30.5168 6.50667 30.347 6.43623 30.1699 6.43604H25.1973C25.0202 6.43623 24.8504 6.50667 24.7252 6.6319C24.5999 6.75712 24.5295 6.92691 24.5293 7.104V9.03369C24.5295 9.21079 24.5999 9.38057 24.7252 9.5058C24.8504 9.63103 25.0202 9.70146 25.1973 9.70166H25.3086V12.6912H20.7812C20.6435 12.6912 20.5113 12.7459 20.4139 12.8434C20.3165 12.9408 20.2617 13.0729 20.2617 13.2107C20.2617 13.3485 20.3165 13.4807 20.4139 13.5781C20.5113 13.6755 20.6435 13.7303 20.7812 13.7303H25.3086V23.9702C25.3086 25.3539 26.3741 26.4796 27.6836 26.4796C28.9931 26.4796 30.0586 25.3539 30.0586 23.9702V13.7303H35.5508V30.8748H2.44922V13.7303H7.79297V23.9702C7.79297 25.3304 8.89757 26.4796 10.2051 26.4796C11.5126 26.4796 12.6172 25.3306 12.6172 23.9702V13.7303H17.0703C17.2081 13.7303 17.3402 13.6755 17.4377 13.5781C17.5351 13.4807 17.5898 13.3485 17.5898 13.2107C17.5898 13.0729 17.5351 12.9408 17.4377 12.8434C17.3402 12.7459 17.2081 12.6912 17.0703 12.6912H12.6172V9.70166H12.6914C12.8685 9.70146 13.0383 9.63103 13.1635 9.5058C13.2887 9.38057 13.3592 9.21079 13.3594 9.03369V7.104C13.3592 6.92691 13.2887 6.75712 13.1635 6.6319C13.0383 6.50667 12.8685 6.43623 12.6914 6.43604H7.71875C7.54165 6.43623 7.37187 6.50667 7.24664 6.6319C7.12142 6.75712 7.05098 6.92691 7.05078 7.104V9.03369C7.05098 9.21079 7.12142 9.38057 7.24664 9.5058C7.37187 9.63103 7.54165 9.70146 7.71875 9.70166H7.79297V12.6912H2.07812C1.90103 12.6914 1.73124 12.7618 1.60602 12.8871C1.48079 13.0123 1.41035 13.1821 1.41016 13.3592V31.2459C1.41035 31.423 1.48079 31.5928 1.60602 31.718C1.73124 31.8432 1.90103 31.9137 2.07812 31.9138H35.9219C36.099 31.9137 36.2688 31.8432 36.394 31.718C36.5192 31.5928 36.5896 31.423 36.5898 31.2459V13.3592C36.5896 13.1821 36.5192 13.0123 36.394 12.8871C36.2688 12.7618 36.099 12.6914 35.9219 12.6912ZM25.5684 7.4751H29.7988V8.6626H25.5684V7.4751ZM29.0195 9.70166V20.6326H26.3477V9.70166H29.0195ZM27.6836 25.4405C26.9594 25.4405 26.3477 24.7672 26.3477 23.9702V21.6717H29.0195V23.9702C29.0195 24.7672 28.4077 25.4405 27.6836 25.4405ZM10.2051 25.4405C9.46081 25.4405 8.83203 24.7672 8.83203 23.9702V18.6287H11.5781V23.9702C11.5781 24.7672 10.9493 25.4405 10.2051 25.4405ZM8.08984 7.4751H12.3203V8.6626H8.08984V7.4751ZM11.5781 9.70166V17.5896H8.83203V9.70166H11.5781Z" fill="#1FA3B1"/>
<path id="Vector_4" d="M18.9258 26.4796C20.2354 26.4796 21.3008 25.3539 21.3008 23.9702V9.70166H21.4121C21.5892 9.70146 21.759 9.63103 21.8842 9.5058C22.0094 9.38057 22.0799 9.21079 22.0801 9.03369V7.104C22.0799 6.92691 22.0094 6.75712 21.8842 6.6319C21.759 6.50667 21.5892 6.43623 21.4121 6.43604H16.4395C16.2624 6.43623 16.0926 6.50667 15.9673 6.6319C15.8421 6.75712 15.7717 6.92691 15.7715 7.104V9.03369C15.7717 9.21079 15.8421 9.38057 15.9673 9.5058C16.0926 9.63103 16.2624 9.70146 16.4395 9.70166H16.5508V23.9702C16.5508 25.3539 17.6163 26.4796 18.9258 26.4796ZM18.9258 25.4405C18.2016 25.4405 17.5898 24.7672 17.5898 23.9702V16.1795H20.2617V23.9702C20.2617 24.7672 19.6499 25.4405 18.9258 25.4405ZM20.2617 15.1404H17.5898V9.70166H20.2617V15.1404ZM16.8105 7.4751H21.041V8.6626H16.8105V7.4751Z" fill="#C3007D"/>
</g>
</svg>
