<svg width="38" height="38" viewBox="0 0 38 38" fill="none" xmlns="http://www.w3.org/2000/svg">
<g id="059-male 1">
<path id="Vector" d="M14.3951 31.9977C13.1627 31.6682 12.0779 30.9318 11.3167 29.9081C10.5555 28.8843 10.1628 27.6333 10.2021 26.3582C10.2415 25.0831 10.7108 23.8588 11.5337 22.884C12.3566 21.9091 13.4848 21.2411 14.7352 20.9883C14.368 20.9145 13.9945 20.8772 13.62 20.877C12.8304 20.8787 12.0499 21.0458 11.3288 21.3673C10.6076 21.6889 9.96182 22.1579 9.43287 22.7442C8.90393 23.3304 8.50358 24.0209 8.25759 24.7712C8.01159 25.5215 7.92541 26.315 8.00458 27.1006C8.08375 27.8862 8.32652 28.6466 8.71727 29.3327C9.10802 30.0188 9.63809 30.6155 10.2734 31.0845C10.9087 31.5534 11.6351 31.8841 12.4059 32.0553C13.1767 32.2266 13.9748 32.2345 14.7489 32.0787C14.6306 32.0553 14.5126 32.0291 14.3951 31.9977Z" fill="#C3007D"/>
<path id="Vector_2" d="M25.518 16.9319C24.2857 16.6023 23.2011 15.8659 22.44 14.8422C21.679 13.8186 21.2863 12.5677 21.3257 11.2928C21.365 10.0178 21.8341 8.79357 22.6568 7.81877C23.4795 6.84398 24.6075 6.17585 25.8578 5.92285C25.4906 5.8491 25.117 5.81181 24.7425 5.81152C23.953 5.81328 23.1725 5.98033 22.4513 6.30192C21.7302 6.62351 21.0844 7.09251 20.5554 7.67875C20.0265 8.26499 19.6261 8.95548 19.3801 9.70578C19.1342 10.4561 19.048 11.2496 19.1271 12.0352C19.2063 12.8208 19.4491 13.5811 19.8398 14.2673C20.2306 14.9534 20.7607 15.5501 21.3959 16.019C22.0312 16.488 22.7576 16.8187 23.5284 16.9899C24.2992 17.1611 25.0973 17.1691 25.8714 17.0133C25.7539 16.9895 25.6355 16.9634 25.518 16.9319Z" fill="#C3007D"/>
<path id="Vector_3" d="M22.4741 19.9894C23.2218 20.1901 23.9926 20.292 24.7668 20.2925C25.7248 20.2924 26.6761 20.1345 27.5827 19.8249L30.1628 24.3449L26.285 23.401C26.1582 23.3701 26.0251 23.3771 25.9021 23.421C25.7792 23.465 25.6719 23.5439 25.5933 23.6482C25.5148 23.7525 25.4686 23.8775 25.4603 24.0078C25.4521 24.138 25.4822 24.2679 25.5469 24.3812L26.5833 26.1968C26.6284 26.2756 26.6891 26.3444 26.7617 26.3991C26.8342 26.4537 26.9171 26.4931 27.0053 26.5147L33.8142 28.1728C33.9426 28.2042 34.0782 28.1853 34.1933 28.1202C34.3083 28.055 34.3942 27.9484 34.4333 27.8221L36.5268 21.0821C36.5539 20.9945 36.5627 20.9024 36.5527 20.8113C36.5428 20.7203 36.5143 20.6322 36.469 20.5526L35.4313 18.735C35.3668 18.6219 35.2707 18.5302 35.1548 18.471C35.0388 18.4118 34.9081 18.3878 34.7787 18.402C34.6493 18.4161 34.5269 18.4677 34.4264 18.5504C34.326 18.6332 34.2519 18.7435 34.2132 18.8678L33.0349 22.6597L30.4779 18.1806C31.9792 16.9009 33.0085 15.155 33.4012 13.2218C33.794 11.2886 33.5276 9.27953 32.6447 7.51545C31.7617 5.75138 30.3131 4.33404 28.5302 3.48979C26.7472 2.64555 24.7328 2.42308 22.8087 2.85793C20.8845 3.29278 19.1615 4.35985 17.9149 5.88875C16.6683 7.41765 15.9699 9.32017 15.9314 11.2925C15.8928 13.2648 16.5163 15.1932 17.7022 16.7696C18.8881 18.3461 20.5681 19.4797 22.4738 19.9894H22.4741ZM32.7255 24.2131C32.7757 24.301 32.8505 24.3724 32.9407 24.4184C33.0308 24.4644 33.1325 24.483 33.2331 24.472C33.3337 24.4611 33.4289 24.4209 33.5071 24.3566C33.5852 24.2922 33.6428 24.2064 33.6729 24.1097L34.9521 19.9916L35.4865 20.9277L33.5856 27.0477L27.4064 25.5427L26.8764 24.6142L31.0892 25.6401C31.1879 25.6641 31.2914 25.6587 31.387 25.6245C31.4825 25.5904 31.566 25.529 31.6271 25.4479C31.6882 25.3668 31.7241 25.2696 31.7306 25.1683C31.737 25.067 31.7136 24.966 31.6633 24.8778L28.5521 19.4279C28.7599 19.3281 28.9657 19.221 29.1676 19.1043C29.3292 19.0109 29.487 18.9128 29.6409 18.81L32.7255 24.2131ZM17.2337 9.45673C17.6987 7.71721 18.7526 6.19274 20.2156 5.14309C21.6786 4.09344 23.4603 3.58355 25.2571 3.70029C27.054 3.81703 28.7547 4.55319 30.0696 5.78332C31.3845 7.01346 32.2322 8.66147 32.4683 10.4465C32.7043 12.2316 32.3141 14.0433 31.3641 15.5729C30.4141 17.1026 28.9632 18.2555 27.2584 18.8352C25.5537 19.415 23.7007 19.3857 22.0151 18.7524C20.3296 18.1191 18.9157 16.9209 18.0146 15.362C17.5004 14.4782 17.1667 13.5012 17.0326 12.4876C16.8986 11.4739 16.9669 10.4438 17.2337 9.45673Z" fill="#1FA3B1"/>
<path id="Vector_4" d="M23.0231 17.9358C23.5907 18.0881 24.1757 18.1654 24.7634 18.1659C26.4683 18.1665 28.1097 17.5187 29.3546 16.3537C30.5995 15.1887 31.3547 13.5939 31.467 11.8926C31.5793 10.1913 31.0403 8.51106 29.9593 7.19256C28.8784 5.87405 27.3364 5.01605 25.6462 4.79258C23.9559 4.5691 22.2439 4.99689 20.8575 5.98917C19.471 6.98145 18.5139 8.46393 18.1802 10.1359C17.8465 11.8079 18.1613 13.5442 19.0606 14.9927C19.96 16.4412 21.3766 17.4933 23.0231 17.9358ZM21.9214 6.56985C22.89 6.00989 24.0028 5.74974 25.1193 5.82227C26.2357 5.89481 27.3056 6.29678 28.1936 6.97735C29.0816 7.65792 29.7478 8.58654 30.108 9.64575C30.4683 10.705 30.5063 11.8472 30.2174 12.9281C29.9284 14.0089 29.3254 14.9798 28.4847 15.7179C27.644 16.4561 26.6032 16.9284 25.4941 17.075C24.3849 17.2217 23.2572 17.0362 22.2535 16.5419C21.2498 16.0476 20.4152 15.2668 19.8553 14.2982C19.4787 13.6564 19.2333 12.9461 19.1333 12.2086C19.0334 11.4712 19.0809 10.7212 19.2731 10.0022C19.4653 9.28329 19.7984 8.60966 20.253 8.02045C20.7076 7.43123 21.2747 6.93816 21.9214 6.56985Z" fill="#1FA3B1"/>
<path id="Vector_5" d="M7.83318 29.8844C8.27136 30.6471 8.85644 31.3153 9.55457 31.8504C10.2527 32.3854 11.05 32.7767 11.9004 33.0016C12.4679 33.1539 13.0529 33.2312 13.6406 33.2317C15.1147 33.2299 16.5471 32.7418 17.7157 31.8431C18.8842 30.9444 19.7236 29.6853 20.1038 28.261C20.4839 26.8367 20.3836 25.3268 19.8182 23.9653C19.2529 22.6038 18.2542 21.4669 16.977 20.7308C15.6998 19.9947 14.2154 19.7005 12.754 19.8938C11.2926 20.0871 9.93573 20.7572 8.89388 21.8002C7.85203 22.8431 7.18336 24.2006 6.99153 25.6623C6.7997 27.1239 7.09544 28.608 7.83289 29.8844H7.83318ZM10.7992 21.636C11.7678 21.0761 12.8806 20.8159 13.9971 20.8885C15.1135 20.961 16.1834 21.363 17.0714 22.0435C17.9594 22.7241 18.6256 23.6527 18.9858 24.712C19.3461 25.7712 19.3841 26.9134 19.0952 27.9943C18.8062 29.0751 18.2032 30.046 17.3625 30.7841C16.5218 31.5223 15.481 31.9946 14.3719 32.1412C13.2627 32.2879 12.135 32.1024 11.1313 31.6081C10.1276 31.1138 9.29303 30.333 8.73308 29.3645C8.35652 28.7226 8.11116 28.0123 8.01125 27.2748C7.91134 26.5374 7.95886 25.7874 8.15106 25.0685C8.34327 24.3495 8.67632 23.6759 9.1309 23.0867C9.58548 22.4975 10.1525 22.0044 10.7992 21.636Z" fill="#1FA3B1"/>
<path id="Vector_6" d="M2.52002 18.4921C2.60785 18.6459 2.7532 18.7586 2.92409 18.8053C3.09498 18.8519 3.27742 18.8288 3.43127 18.741L6.34807 17.0759L7.91127 19.8146C6.23984 21.2373 5.1588 23.2319 4.8793 25.409C4.59979 27.586 5.1419 29.7891 6.39973 31.5879C7.65757 33.3866 9.54078 34.6519 11.6815 35.1365C13.8223 35.6211 16.0668 35.2903 17.9767 34.2087C19.8866 33.127 21.3247 31.3722 22.0101 29.2871C22.6955 27.2019 22.5789 24.9361 21.6832 22.9323C20.7875 20.9284 19.1769 19.3305 17.1661 18.4505C15.1553 17.5705 12.8886 17.4718 10.8089 18.1735L9.24038 15.425L12.1572 13.7599C12.3109 13.6719 12.4234 13.5266 12.47 13.3558C12.5167 13.1849 12.4937 13.0026 12.4061 12.8487L11.4172 11.1167C11.3292 10.963 11.1839 10.8505 11.0131 10.8039C10.8422 10.7572 10.6599 10.7802 10.506 10.8679L7.58923 12.5329L5.92413 9.6161C5.8363 9.46225 5.69095 9.34959 5.52006 9.30291C5.34917 9.25622 5.16673 9.27934 5.01288 9.36717L3.28061 10.3559C3.12683 10.4438 3.01423 10.5891 2.96758 10.76C2.92092 10.9308 2.94403 11.1132 3.03183 11.267L4.69693 14.1838L1.78013 15.8489C1.6263 15.9367 1.51366 16.0821 1.46697 16.253C1.42029 16.4238 1.44339 16.6063 1.5312 16.7601L2.52002 18.4921ZM13.6166 18.7514C15.5045 18.749 17.3289 19.4332 18.7498 20.6764C20.1706 21.9196 21.0909 23.637 21.3392 25.5086C21.5875 27.3801 21.1468 29.2781 20.0993 30.8488C19.0518 32.4194 17.4689 33.5556 15.6456 34.0456C13.8224 34.5356 11.8832 34.3459 10.1894 33.512C8.49568 32.678 7.16295 31.2566 6.43961 29.5128C5.71628 27.7689 5.65169 25.8215 6.2579 24.0335C6.86411 22.2456 8.09975 20.739 9.73452 19.7947C10.915 19.1132 12.2536 18.7535 13.6166 18.7514ZM5.53463 14.9023C5.6883 14.8143 5.8008 14.6689 5.84746 14.4981C5.89413 14.3273 5.87115 14.145 5.78356 13.9911L4.11847 11.0743L5.2057 10.4537L6.87072 13.3705C6.9142 13.4466 6.97227 13.5135 7.0416 13.5673C7.11094 13.621 7.19018 13.6606 7.27481 13.6837C7.35944 13.7068 7.44779 13.7131 7.53482 13.702C7.62186 13.691 7.70586 13.663 7.78205 13.6195L10.6988 11.9544L11.3195 13.0417L8.40274 14.7068C8.24906 14.7947 8.13654 14.9401 8.08988 15.1109C8.04321 15.2818 8.0662 15.4641 8.15381 15.618L9.83761 18.5676C9.62743 18.6678 9.41974 18.7771 9.21455 18.8954C9.05503 18.9877 8.89969 19.0841 8.74853 19.1848L7.06651 16.2383C6.97851 16.0847 6.83317 15.9722 6.66235 15.9256C6.49154 15.8789 6.3092 15.9019 6.15532 15.9896L3.23853 17.6547L2.61791 16.5674L5.53463 14.9023Z" fill="#1FA3B1"/>
</g>
</svg>
