<svg width="38" height="38" viewBox="0 0 38 38" fill="none" xmlns="http://www.w3.org/2000/svg">
<g id="026-doctor 1">
<path id="Vector" d="M18.0512 25.4477L17.477 21.4352L17.8691 20.6336C17.4268 20.5475 16.9964 20.4085 16.5872 20.2197L15.9927 21.4354L16.5668 25.4479C17.4067 25.8161 18.939 26.1497 19.2123 26.1497C19.4664 26.1277 19.7184 26.0863 19.9663 26.0259C19.3762 25.8957 18.5776 25.6785 18.0512 25.4477Z" fill="#D4E1F4"/>
<path id="Vector_2" d="M7.42188 34.3988V28.6674C7.42188 27.0786 9.07398 25.4827 11.9319 24.2347C11.854 24.0688 11.8017 23.892 11.777 23.7104C8.10766 25.0157 5.9375 26.8462 5.9375 28.6674V34.3988C5.9375 34.8842 6.61846 35.5529 7.11268 35.5529H8.59705C8.10283 35.5529 7.42188 34.8842 7.42188 34.3988Z" fill="#D4E1F4"/>
<path id="Vector_3" d="M23.566 4.3735C23.3679 4.32306 23.1652 4.29297 22.9609 4.28369C23.0267 4.34439 23.1071 4.38707 23.1942 4.40759C23.2813 4.42811 23.3722 4.42577 23.4582 4.40081C23.494 4.39042 23.5302 4.38255 23.566 4.3735Z" fill="#D4E1F4"/>
<path id="Vector_4" d="M18.101 19.0574C16.2432 17.9089 16.0329 15.6342 16.0096 15.19C16.0059 15.0547 15.9495 14.9262 15.8525 14.8319C15.7554 14.7375 15.6254 14.6848 15.4901 14.6848H15.4804C14.8326 14.6959 13.8921 13.6864 13.5319 12.1627C13.4194 11.6841 13.5684 11.3266 13.7738 11.2208C13.9691 11.1201 14.1719 11.3025 14.2752 11.4203C14.3614 11.5187 14.4816 11.581 14.6117 11.5946C14.7418 11.6083 14.8723 11.5724 14.9771 11.494C15.0819 11.4157 15.1532 11.3007 15.1769 11.1721C15.2006 11.0434 15.1749 10.9105 15.1049 10.8C14.9241 10.3458 14.7063 7.51789 14.7063 7.01543C14.7078 5.93092 15.0939 4.88211 15.796 4.05553C16.4981 3.22896 17.4706 2.67823 18.5406 2.50129C18.2947 2.46104 18.046 2.44069 17.7968 2.44043C16.5839 2.4418 15.421 2.92426 14.5633 3.78196C13.7056 4.63966 13.2232 5.80255 13.2218 7.0155C13.2218 7.51796 13.4397 10.3459 13.6205 10.8001C13.6904 10.9106 13.7162 11.0435 13.6925 11.1721C13.6688 11.3008 13.5974 11.4158 13.4926 11.4941C13.3878 11.5725 13.2574 11.6084 13.1273 11.5947C12.9971 11.581 12.877 11.5188 12.7908 11.4204C12.6874 11.3026 12.4847 11.1202 12.2893 11.2209C12.0839 11.3267 11.9349 11.6842 12.0475 12.1628C12.4076 13.6865 13.3481 14.696 13.9959 14.6849H14.0056C14.141 14.6848 14.271 14.7376 14.368 14.8319C14.465 14.9263 14.5214 15.0548 14.5252 15.19C14.5484 15.6343 14.7587 17.909 16.6165 19.0574C17.3364 19.5022 18.2339 19.7278 19.2826 19.7278C19.5287 19.7281 19.7747 19.7144 20.0192 19.6866C19.3411 19.6213 18.686 19.4064 18.101 19.0574Z" fill="#D4E1F4"/>
<path id="Vector_5" d="M28.5657 33.4766C28.7045 33.5047 28.8458 33.5189 28.9874 33.519C29.4991 33.518 29.9929 33.3312 30.3772 32.9935C30.7615 32.6558 31.0101 32.19 31.0768 31.6828C31.1436 31.1755 31.0239 30.6613 30.74 30.2357C30.4561 29.81 30.0274 29.5019 29.5335 29.3686C29.4461 27.2154 28.9391 25.0011 28.1513 23.3674C28.0914 23.2432 27.9847 23.148 27.8546 23.1025C27.7245 23.0571 27.5817 23.0652 27.4576 23.1251C27.3335 23.1849 27.2382 23.2916 27.1928 23.4217C27.1474 23.5518 27.1555 23.6946 27.2153 23.8188C27.9376 25.3163 28.4045 27.3545 28.4919 29.3522C28.0239 29.4641 27.6082 29.7325 27.3135 30.1129C27.0188 30.4932 26.8629 30.9628 26.8714 31.4439C26.88 31.925 27.0526 32.3887 27.3606 32.7584C27.6686 33.128 28.0936 33.3814 28.5653 33.4766H28.5657ZM27.9317 31.1948C27.9807 30.9524 28.1118 30.7344 28.3029 30.5775C28.4941 30.4206 28.7335 30.3346 28.9808 30.3338C29.0527 30.3339 29.1245 30.3411 29.1951 30.3553C29.403 30.3973 29.5939 30.4999 29.7435 30.6503C29.8931 30.8007 29.9948 30.9921 30.0356 31.2002C30.0764 31.4084 30.0546 31.624 29.9729 31.8198C29.8912 32.0155 29.7533 32.1827 29.5766 32.3001C29.3999 32.4175 29.1924 32.4798 28.9803 32.4793C28.7682 32.4787 28.561 32.4152 28.3849 32.2969C28.2088 32.1786 28.0718 32.0107 27.9911 31.8145C27.9105 31.6183 27.8898 31.4026 27.9317 31.1947V31.1948Z" fill="#C3007D"/>
<path id="Vector_6" d="M7.60339 33.3009C7.74068 33.3103 7.87613 33.2649 7.97999 33.1746C8.08386 33.0843 8.14765 32.9565 8.15737 32.8193C8.1671 32.682 8.12195 32.5464 8.03185 32.4424C7.94175 32.3384 7.81405 32.2744 7.67679 32.2644C7.60351 32.2591 7.53462 32.2275 7.4828 32.1754C7.43098 32.1233 7.39972 32.0543 7.39476 31.9809L8.47093 28.2426C8.48097 28.2077 8.48731 28.1717 8.48986 28.1354C8.49556 28.055 8.53299 27.98 8.59393 27.9272C8.65486 27.8743 8.7343 27.8477 8.81479 27.8534L10.6635 27.9841C10.744 27.9898 10.8189 28.0273 10.8718 28.0882C10.9247 28.1491 10.9512 28.2286 10.9455 28.309C10.943 28.3453 10.9442 28.3818 10.9492 28.4178L11.4884 32.2704C11.4733 32.3423 11.4326 32.4063 11.374 32.4505C11.3153 32.4948 11.2426 32.5163 11.1693 32.5112C11.0322 32.502 10.8969 32.5475 10.7933 32.6378C10.6896 32.7281 10.626 32.8558 10.6163 32.9929C10.6066 33.13 10.6516 33.2654 10.7415 33.3693C10.8314 33.4733 10.9589 33.5374 11.096 33.5476C11.1284 33.55 11.1607 33.5511 11.1928 33.551C11.5323 33.5505 11.859 33.4214 12.1072 33.1898C12.3555 32.9582 12.5067 32.6411 12.5307 32.3025C12.5333 32.2662 12.532 32.2298 12.527 32.1938L11.9852 28.3214C11.9934 27.9759 11.8684 27.6405 11.636 27.3848C11.4036 27.129 11.0817 26.9725 10.7371 26.9476L10.4869 26.93C10.8114 25.6827 11.2811 24.4271 11.738 23.6105C11.7713 23.5509 11.7925 23.4854 11.8005 23.4176C11.8084 23.3499 11.803 23.2812 11.7844 23.2156C11.7659 23.1499 11.7345 23.0886 11.6923 23.035C11.65 22.9815 11.5976 22.9368 11.538 22.9035C11.4785 22.8702 11.4129 22.8489 11.3452 22.841C11.2774 22.833 11.2088 22.8384 11.1431 22.857C11.0775 22.8756 11.0161 22.9069 10.9626 22.9492C10.909 22.9914 10.8643 23.0439 10.831 23.1034C10.2168 24.2018 9.71936 25.721 9.43414 26.8555L8.88819 26.8169C8.5433 26.7925 8.20229 26.9021 7.93609 27.1227C7.6699 27.3433 7.49903 27.6581 7.45903 28.0016L6.37714 31.7591C6.3671 31.794 6.36076 31.8299 6.35822 31.8661C6.33354 32.2214 6.45077 32.572 6.68419 32.8409C6.91761 33.1099 7.24818 33.2753 7.60339 33.3009Z" fill="#C3007D"/>
<path id="Vector_7" d="M17.6283 36.5918C17.6825 36.6012 17.7379 36.6012 17.7921 36.5918H30.9339C31.9873 36.5918 33.1016 35.4645 33.1016 34.3986V28.6672C33.1016 26.3206 30.7364 24.0974 26.7638 22.6941C26.556 22.2589 26.1808 21.8851 25.6827 21.6248C25.533 21.5455 24.4421 21.1559 23.4768 20.8165L22.8831 19.6495C24.4547 18.4323 24.905 16.5549 25.0322 15.6651C26.1226 15.3819 27.1274 14.1015 27.5292 12.4012C27.7365 11.5227 27.438 10.696 26.7865 10.3439C26.6222 10.2541 26.4409 10.1997 26.2543 10.1844C26.5703 9.08703 26.8777 7.62767 26.8777 7.29836C26.8775 6.69793 26.744 6.10503 26.4869 5.56242C26.2299 5.0198 25.8556 4.54097 25.3912 4.16044C24.9267 3.77992 24.3836 3.50718 23.801 3.36189C23.2184 3.2166 22.6109 3.20237 22.0221 3.32023C21.2702 2.46044 20.2739 1.85047 19.1662 1.57177C18.0585 1.29307 16.8922 1.3589 15.8229 1.76047C14.7536 2.16205 13.8322 2.88025 13.1818 3.8192C12.5314 4.75814 12.1829 5.87316 12.1829 7.01536C12.1829 7.25465 12.24 8.19923 12.3297 9.13483C12.3692 9.54711 12.4073 9.88021 12.4437 10.1506C12.2246 10.145 12.0077 10.1955 11.8135 10.2971C11.1347 10.6468 10.8224 11.492 11.0362 12.4009V12.4013C11.437 14.0984 12.4389 15.3775 13.527 15.6635C13.6438 16.5667 14.0792 18.4641 15.6931 19.6823L15.0785 20.9392C13.8474 21.3277 13.1603 21.5575 13.0375 21.6215C12.6284 21.8244 12.283 22.1361 12.0393 22.5224C7.50107 24.0048 4.89844 26.2437 4.89844 28.6672V34.3986C4.89844 35.4645 6.03658 36.5918 7.11268 36.5918H17.6283ZM18.1518 35.5527L16.7469 26.6278C17.713 26.9558 18.8793 27.1885 19.2123 27.1885C19.5661 27.1885 20.7907 26.9444 21.7877 26.601L20.4102 35.5527H18.1518ZM16.5669 25.4477L15.9927 21.4352L16.5872 20.2195C17.3665 20.5831 18.2706 20.7666 19.2828 20.7666C20.3026 20.7666 21.2125 20.5754 21.9964 20.1979L22.5701 21.326L21.9688 25.4173C21.1048 25.8079 19.5137 26.1495 19.2127 26.1495C18.9391 26.1495 17.4067 25.8159 16.5669 25.4477ZM26.7113 24.3558C26.7997 24.1983 26.8648 24.0288 26.9047 23.8526C30.1048 25.0859 32.0625 26.8969 32.0625 28.6672V34.3986C32.0625 34.8947 31.4191 35.5527 30.9339 35.5527H21.7931L26.479 28.1325C26.8325 27.6232 26.9882 27.0273 26.8959 26.5359C26.8711 26.3796 26.8146 26.2301 26.73 26.0965C26.6453 25.9628 26.5343 25.8479 26.4037 25.7586C26.2246 25.646 26.0345 25.5519 25.8363 25.4779C26.1771 25.1449 26.4714 24.7675 26.7113 24.3558ZM22.9687 25.7586L23.5308 21.937C24.3373 22.2226 25.0819 22.4918 25.2051 22.547C25.5486 22.7282 25.7926 22.9895 25.875 23.2648C25.9042 23.3622 25.9129 23.4646 25.9005 23.5655C25.8881 23.6665 25.8549 23.7637 25.803 23.8511C25.379 24.615 24.5053 25.2719 24.4967 25.2782C24.4176 25.3369 24.3569 25.4168 24.3215 25.5088C24.2862 25.6007 24.2777 25.7008 24.2971 25.7973C24.3164 25.8939 24.3628 25.983 24.4309 26.0542C24.4989 26.1254 24.5858 26.1758 24.6814 26.1995C24.9963 26.2777 25.5858 26.4618 25.8275 26.623C25.8545 26.6516 25.8712 26.6884 25.8747 26.7276C25.906 26.8938 25.8583 27.208 25.6208 27.5466C25.616 27.5534 25.6113 27.5604 25.6069 27.5675L21.7504 33.6742L22.9687 25.7586ZM14.5254 15.1898C14.5216 15.0545 14.4652 14.9261 14.3682 14.8317C14.2712 14.7374 14.1412 14.6846 14.0058 14.6847H13.9961C13.3483 14.6957 12.4078 13.6863 12.0476 12.1626C11.9351 11.6839 12.0841 11.3265 12.2895 11.2207C12.4849 11.12 12.6876 11.3023 12.7909 11.4202C12.8771 11.5186 12.9973 11.5808 13.1274 11.5945C13.2575 11.6082 13.388 11.5722 13.4928 11.4939C13.5976 11.4156 13.6689 11.3006 13.6926 11.1719C13.7163 11.0433 13.6906 10.9104 13.6206 10.7999C13.4398 10.3457 13.222 7.51775 13.222 7.01529C13.2219 6.06055 13.5205 5.1297 14.076 4.3532C14.6315 3.5767 15.416 2.99347 16.3197 2.68526C17.2233 2.37704 18.2007 2.35929 19.1149 2.63448C20.0291 2.90968 20.8343 3.46403 21.4177 4.21984C21.4815 4.30243 21.5688 4.36386 21.6681 4.39612C21.7674 4.42838 21.8741 4.42998 21.9743 4.40071C22.4242 4.26955 22.8985 4.24491 23.3596 4.32873C23.8207 4.41256 24.2559 4.60256 24.6309 4.88368C25.0058 5.16481 25.3102 5.52935 25.5199 5.94845C25.7296 6.36756 25.8389 6.82972 25.8391 7.29836C25.8391 7.68682 25.1839 10.3827 24.961 10.7757C24.8847 10.8828 24.8519 11.0148 24.8692 11.1451C24.8865 11.2754 24.9525 11.3944 25.054 11.4779C25.1555 11.5615 25.2849 11.6035 25.4161 11.5954C25.5473 11.5874 25.6706 11.5299 25.7611 11.4345C25.8485 11.3423 26.0755 11.1407 26.2926 11.2579C26.4801 11.3593 26.6307 11.6856 26.5181 12.1624C26.158 13.6863 25.2163 14.6965 24.5697 14.6848C24.4336 14.6819 24.3018 14.7326 24.2028 14.826C24.1038 14.9194 24.0455 15.0479 24.0404 15.184C24.0099 15.6263 23.7658 17.8913 21.9424 19.0423C21.2231 19.4973 20.3285 19.7273 19.2828 19.7273C18.2341 19.7273 17.337 19.5018 16.6167 19.057C14.7589 17.909 14.5486 15.6341 14.5254 15.1898ZM12.8337 23.2695C12.9172 22.9924 13.1617 22.7305 13.5071 22.5488C13.6338 22.4958 14.3029 22.2766 15.0303 22.0447L15.6038 26.052C15.6053 26.0634 15.6073 26.0743 15.6096 26.0856L16.794 33.6096L13.1035 27.6343C13.0982 27.6257 13.0926 27.6172 13.0868 27.609C12.8623 27.2889 12.7979 26.9536 12.8337 26.7633C12.8372 26.7228 12.8537 26.6845 12.8805 26.654C13.1245 26.4912 13.7177 26.2972 14.0341 26.2132C14.1284 26.1883 14.2139 26.1372 14.2805 26.066C14.3472 25.9947 14.3925 25.9061 14.4112 25.8104C14.4298 25.7146 14.4211 25.6154 14.3861 25.5244C14.351 25.4333 14.291 25.3539 14.213 25.2954C13.9694 25.1126 13.2596 24.4985 12.9046 23.8589C12.8526 23.771 12.8194 23.6732 12.8072 23.5717C12.795 23.4702 12.804 23.3673 12.8337 23.2695ZM5.9375 34.3986V28.6672C5.9375 26.8459 8.10766 25.0156 11.777 23.7102C11.8082 23.9398 11.8826 24.1614 11.9963 24.3633C12.2396 24.7805 12.5377 25.1631 12.8829 25.5008C12.6809 25.5777 12.487 25.6744 12.304 25.7895C12.1732 25.8796 12.0621 25.9953 11.9775 26.1298C11.893 26.2642 11.8368 26.4145 11.8123 26.5714C11.7175 27.0761 11.8724 27.6807 12.2269 28.1925L16.7727 35.5527H7.11268C6.61846 35.5527 5.9375 34.884 5.9375 34.3986Z" fill="#1FA3B1"/>
</g>
</svg>
