<svg width="38" height="38" viewBox="0 0 38 38" fill="none" xmlns="http://www.w3.org/2000/svg">
<g id="052-doctor-1 1">
<path id="Vector" d="M6.41418 34.6217C6.53345 34.1344 7.2694 31.1265 7.77402 29.0765C8.19513 27.3654 9.67825 25.801 11.8729 24.6795C11.778 24.4987 11.7147 24.3031 11.6857 24.1011C8.78272 25.2236 6.78921 27.0468 6.29001 29.0765C5.78532 31.1265 5.04945 34.1344 4.93018 34.6217C4.95986 35.0988 5.36139 35.5353 5.78547 35.5353H7.26985C6.84539 35.5353 6.44357 35.0988 6.41418 34.6217Z" fill="#D4E1F4"/>
<path id="Vector_2" d="M17.8982 19.5536C16.0586 18.4163 15.8845 16.0671 15.8706 15.803C15.8667 15.6678 15.8102 15.5395 15.7132 15.4453C15.6162 15.3511 15.4863 15.2983 15.3511 15.2983C15.3479 15.2983 15.3446 15.2983 15.3414 15.2983C14.7151 15.3111 13.8089 14.3313 13.4603 12.8565C13.3523 12.398 13.4932 12.0564 13.6881 11.956C13.8698 11.8623 14.061 12.0354 14.1588 12.1468C14.2334 12.2318 14.3337 12.2902 14.4445 12.313C14.5554 12.3358 14.6706 12.3218 14.7727 12.2732C14.8748 12.2245 14.9583 12.1439 15.0104 12.0435C15.0625 11.9431 15.0804 11.8284 15.0614 11.7169C14.929 10.9398 14.7765 8.69676 15.649 7.66304C15.7479 7.54484 15.8638 7.44205 15.993 7.35807C15.8358 7.18195 15.6825 7.09912 15.4899 7.09912C14.9184 7.09912 14.485 7.28355 14.1647 7.66318C13.2921 8.6969 13.4447 10.9399 13.5771 11.717C13.5961 11.8285 13.5782 11.9432 13.526 12.0436C13.4739 12.144 13.3905 12.2247 13.2883 12.2733C13.1862 12.322 13.071 12.336 12.9602 12.3132C12.8494 12.2904 12.749 12.232 12.6744 12.147C12.5767 12.0356 12.3854 11.8624 12.2037 11.9561C12.0088 12.0566 11.868 12.3981 11.9759 12.8566C12.3247 14.3318 13.2307 15.3117 13.857 15.2988C13.8602 15.2988 13.8635 15.2988 13.8667 15.2988C14.002 15.2989 14.1319 15.3516 14.2289 15.4458C14.3259 15.54 14.3823 15.6683 14.3863 15.8035C14.4001 16.0676 14.5742 18.4168 16.4139 19.5542C17.1122 19.9854 17.9822 20.2041 18.9997 20.2041C19.2462 20.2046 19.4924 20.1904 19.7372 20.1616C19.087 20.0963 18.4592 19.8887 17.8982 19.5536Z" fill="#D4E1F4"/>
<path id="Vector_3" d="M21.3788 10.6088C22.2228 10.6088 23.113 10.3194 23.8984 10.0644C24.0347 10.0198 24.1817 9.97249 24.3308 9.92633C24.296 9.85486 24.2463 9.79161 24.1852 9.74078C23.9579 9.56266 23.0656 9.85211 22.414 10.0641C21.8592 10.2444 21.2521 10.4411 20.646 10.5414C20.8876 10.5871 21.1329 10.6097 21.3788 10.6088Z" fill="#D4E1F4"/>
<path id="Vector_4" d="M17.8367 25.6039L17.3039 21.8967L17.6676 21.1206C17.2216 21.0377 16.7876 20.9001 16.3753 20.7109L15.8193 21.8967L16.3522 25.6039C17.0877 25.9949 18.6357 26.4426 18.9325 26.45C19.1916 26.4203 19.4475 26.3672 19.697 26.2912C19.1027 26.1251 18.3051 25.8529 17.8367 25.6039Z" fill="#D4E1F4"/>
<path id="Vector_5" d="M32.7198 28.7922C32.3487 27.246 31.2099 25.8037 29.5131 24.647C28.9442 22.3361 28.373 18.8851 28.3546 16.2462L28.3522 15.8775C28.331 12.508 28.307 8.68809 26.7194 5.60883C25.2994 2.85353 22.0308 1.11332 18.7716 1.37687C18.5773 1.39269 18.3881 1.44734 18.2153 1.53757C18.0426 1.6278 17.8896 1.75178 17.7656 1.90218C17.6416 2.05257 17.549 2.22632 17.4933 2.41314C17.4377 2.59996 17.42 2.79605 17.4415 2.98979C17.4489 3.05658 17.4401 3.12417 17.4158 3.18682C17.3915 3.24947 17.3524 3.30532 17.3019 3.34962C17.2514 3.39393 17.1909 3.42538 17.1256 3.4413C17.0604 3.45721 16.9922 3.45713 16.9269 3.44104C15.3258 3.04769 13.5631 3.5687 12.2118 4.8348C11.1645 5.81619 10.4306 7.16193 10.0298 8.8346C9.5761 10.7295 9.57588 12.9834 10.0291 15.534C10.433 17.8066 10.0009 20.8745 8.78025 24.4143C6.93896 25.6129 5.69364 27.1519 5.28098 28.8282C4.73036 31.0653 3.904 34.4428 3.904 34.4428C3.89414 34.4832 3.88916 34.5247 3.88916 34.5662C3.88916 35.636 4.77518 36.5744 5.78523 36.5744H32.2145C33.2246 36.5744 34.1107 35.636 34.1107 34.5662C34.1107 34.5244 34.1057 34.4827 34.0958 34.442C34.0882 34.4113 33.3317 31.3421 32.7198 28.7922ZM11.0522 15.3521C9.99083 9.38003 11.7682 6.67431 12.9225 5.59302C14 4.58364 15.4396 4.14575 16.6793 4.45005C16.9069 4.50602 17.1447 4.50621 17.3724 4.45062C17.6001 4.39502 17.8111 4.28528 17.9873 4.13071C18.1636 3.97614 18.2999 3.78132 18.3847 3.56279C18.4695 3.34426 18.5004 3.10849 18.4746 2.8755C18.4684 2.81993 18.4734 2.76368 18.4893 2.71008C18.5052 2.65648 18.5317 2.60662 18.5673 2.56345C18.6028 2.52027 18.6466 2.48466 18.6962 2.45873C18.7457 2.43279 18.7999 2.41706 18.8557 2.41245C21.6637 2.1863 24.5825 3.7299 25.7964 6.08487C27.2698 8.94318 27.293 12.631 27.3135 15.884L27.3159 16.2534C27.3323 18.6194 27.777 21.608 28.2762 23.9066C27.6253 23.5669 26.9506 23.275 26.2574 23.0331C26.0236 22.6088 25.6657 22.266 25.2317 22.0506C25.0857 21.9733 24.0277 21.5953 23.0896 21.2654L22.5201 20.1457C24.0378 18.964 24.4786 17.1526 24.6051 16.2774C25.6672 15.9954 26.6444 14.7485 27.0352 13.0946C27.2384 12.2337 26.9453 11.4233 26.3058 11.0777C26.0721 10.9492 25.8045 10.8957 25.5394 10.9245C25.5399 10.882 25.5399 10.8389 25.5394 10.7952C25.5272 9.9144 25.2875 9.28473 24.8269 8.92351C24.1639 8.40398 23.2044 8.7157 22.0935 9.07633C21.3466 9.31895 20.5743 9.56988 19.8949 9.56988C18.4746 9.56988 17.9774 8.66938 17.4508 7.71597C17.022 6.93949 16.536 6.05985 15.49 6.05985C14.6061 6.05985 13.8931 6.37365 13.3708 6.99256C12.4713 8.05819 12.3941 9.79989 12.4514 10.8951C12.202 10.8678 11.9501 10.9155 11.7279 11.0321C11.0617 11.3754 10.755 12.2042 10.9647 13.0948C11.3548 14.7457 12.3286 15.9908 13.3884 16.2758C13.5036 17.1567 13.928 18.9862 15.4814 20.1706L14.9242 21.3588C13.7138 21.7527 13.0384 21.9844 12.9192 22.0466C12.5303 22.24 12.1998 22.5335 11.9618 22.8967C11.3325 23.1089 10.7178 23.3619 10.1215 23.6542C11.121 20.404 11.4434 17.5534 11.0522 15.3521ZM21.5793 19.5392C20.8816 19.9801 20.0141 20.2036 18.9999 20.2036C17.9824 20.2036 17.1123 19.9849 16.414 19.5536C14.5744 18.4163 14.4002 16.0671 14.3864 15.803C14.3825 15.6678 14.326 15.5395 14.229 15.4453C14.132 15.3511 14.0021 15.2983 13.8669 15.2983C13.8636 15.2983 13.8604 15.2983 13.8572 15.2983C13.2309 15.3111 12.3247 14.3313 11.976 12.8565C11.8681 12.398 12.009 12.0564 12.2039 11.956C12.3856 11.8623 12.5768 12.0354 12.6746 12.1468C12.7492 12.2319 12.8495 12.2902 12.9603 12.313C13.0711 12.3358 13.1864 12.3219 13.2885 12.2732C13.3906 12.2246 13.4741 12.1439 13.5262 12.0435C13.5783 11.9431 13.5962 11.8284 13.5772 11.7169C13.4448 10.9398 13.2923 8.69677 14.1648 7.66305C14.4851 7.28357 14.9186 7.09899 15.4901 7.09899C15.882 7.09899 16.1114 7.4404 16.5413 8.21843C17.0985 9.22736 17.8615 10.6091 19.8949 10.6091C20.7389 10.6091 21.6291 10.3196 22.4145 10.0646C23.0661 9.85295 23.9583 9.56305 24.1857 9.74133C24.5557 10.0314 24.5474 11.0829 24.4255 11.7014C24.4034 11.8119 24.4178 11.9266 24.4665 12.0282C24.5153 12.1298 24.5957 12.2128 24.6958 12.2646C24.7958 12.3165 24.91 12.3345 25.0211 12.3158C25.1322 12.2971 25.2343 12.2428 25.3118 12.161C25.3946 12.0737 25.6091 11.8825 25.8116 11.9919C25.9897 12.088 26.1316 12.3995 26.0239 12.8559C25.6773 14.3229 24.7805 15.2986 24.1536 15.2986H24.1425C24.0068 15.2966 23.8756 15.3476 23.7769 15.4406C23.6781 15.5337 23.6194 15.6616 23.6132 15.7971C23.5841 16.226 23.3479 18.4228 21.5793 19.5392ZM22.1827 21.7748L21.621 25.5943C20.8437 26.0052 19.2413 26.4478 18.9327 26.4501C18.6358 26.4427 17.0879 25.9948 16.3523 25.604L15.8195 21.8968L16.3755 20.7111C17.1347 21.0643 18.0147 21.2429 18.9999 21.2429C19.9886 21.2429 20.8716 21.0586 21.6332 20.6945L22.1827 21.7748ZM5.78545 35.5354C5.36136 35.5354 4.95954 35.0989 4.93015 34.6218C5.04942 34.1345 5.78538 31.1266 6.28999 29.0766C6.64691 27.6263 7.76694 26.2816 9.43634 25.2224C9.47063 25.2059 9.50298 25.1857 9.53283 25.1621C10.2161 24.7426 10.9368 24.3874 11.6858 24.1012C11.717 24.3233 11.7896 24.5376 11.8996 24.7331C12.1325 25.1329 12.4176 25.5 12.7474 25.8246C12.5576 25.8977 12.3754 25.9891 12.2034 26.0975C12.0746 26.186 11.9653 26.2999 11.882 26.4321C11.7987 26.5644 11.7433 26.7122 11.7191 26.8666C11.6266 27.3587 11.7785 27.9495 12.1248 28.4498L16.5189 35.5354H5.78545ZM13.0008 27.8904C12.9957 27.8821 12.9902 27.8739 12.9847 27.8659C12.769 27.5585 12.7067 27.2388 12.7406 27.0585C12.7438 27.0231 12.7576 26.9895 12.7802 26.962C13.0157 26.8049 13.5902 26.6184 13.8969 26.5378C13.9914 26.5131 14.077 26.4622 14.1439 26.391C14.2108 26.3198 14.2563 26.2312 14.2751 26.1353C14.2939 26.0394 14.2853 25.9402 14.2502 25.849C14.2152 25.7578 14.1552 25.6783 14.077 25.6197C14.0685 25.6133 13.2199 24.9701 12.8083 24.2284C12.7586 24.1445 12.7269 24.0512 12.7152 23.9544C12.7035 23.8577 12.7121 23.7595 12.7404 23.6662C12.8204 23.4003 13.056 23.1486 13.3889 22.9736C13.5098 22.9223 14.1512 22.706 14.853 22.4754L15.3442 25.8937C15.3415 25.9582 15.3508 26.0226 15.3715 26.0836L15.4072 26.332C15.4088 26.3431 15.4107 26.3542 15.413 26.3648L16.562 33.6329L13.0008 27.8904ZM17.9147 35.5354L16.538 26.8263C17.4525 27.1924 18.578 27.4892 18.9313 27.4892C19.3104 27.4892 20.4899 27.1885 21.4374 26.8134L20.1124 35.5354H17.9147ZM22.5988 26.0866L23.143 22.3864C23.9195 22.6615 24.6332 22.9196 24.754 22.9735C25.0845 23.148 25.3191 23.399 25.3981 23.663C25.4259 23.7559 25.4341 23.8535 25.4223 23.9498C25.4104 24.046 25.3787 24.1388 25.3292 24.2221C24.9185 24.9623 24.071 25.5996 24.063 25.6057C23.9839 25.6644 23.9232 25.7444 23.8878 25.8364C23.8525 25.9283 23.844 26.0284 23.8634 26.125C23.8828 26.2216 23.9292 26.3107 23.9973 26.3819C24.0654 26.4531 24.1523 26.5034 24.248 26.5271C24.505 26.5907 25.1145 26.7745 25.358 26.9369C25.3812 26.9625 25.3953 26.9951 25.398 27.0295C25.4277 27.1885 25.3816 27.4897 25.1531 27.8152C25.1479 27.8226 25.1431 27.8301 25.1382 27.8375L21.4367 33.7352L22.5988 26.0866ZM32.2147 35.5354H21.5337L26.0118 28.4004C26.3574 27.9023 26.5096 27.3191 26.4192 26.8377C26.3938 26.6841 26.3378 26.5372 26.2545 26.4057C26.1712 26.2742 26.0623 26.1609 25.9343 26.0723C25.7655 25.9658 25.5865 25.8766 25.3999 25.8059C25.7259 25.485 26.0077 25.1221 26.2378 24.7267C26.3288 24.5644 26.3945 24.3892 26.4327 24.2072C29.256 25.32 31.2531 27.1323 31.7097 29.0351C32.2717 31.3762 32.9549 34.1542 33.0702 34.6226C33.0404 35.0991 32.6387 35.5354 32.2147 35.5354Z" fill="#1FA3B1"/>
<path id="Vector_6" d="M30.4628 31.9865C30.5665 31.4729 30.4714 30.9391 30.1966 30.4929C29.9218 30.0468 29.4878 29.7217 28.9824 29.5833C28.8859 27.6205 28.331 25.3923 27.4968 23.6627C27.4672 23.6013 27.4258 23.5463 27.3749 23.5008C27.324 23.4554 27.2646 23.4204 27.2002 23.3979C27.1358 23.3755 27.0676 23.3659 26.9995 23.3697C26.9313 23.3736 26.8646 23.3908 26.8032 23.4205C26.7417 23.4501 26.6867 23.4916 26.6413 23.5425C26.5959 23.5934 26.5609 23.6527 26.5384 23.7171C26.5159 23.7815 26.5063 23.8498 26.5102 23.9179C26.5141 23.986 26.5313 24.0527 26.5609 24.1141C27.3296 25.708 27.8431 27.7561 27.941 29.5699C27.5815 29.6585 27.2524 29.842 26.9881 30.1013C26.7237 30.3605 26.5339 30.686 26.4383 31.0437C26.3427 31.4014 26.3449 31.7782 26.4446 32.1348C26.5444 32.4913 26.7381 32.8145 27.0054 33.0707C27.2728 33.3268 27.604 33.5065 27.9645 33.5909C28.325 33.6753 28.7015 33.6614 29.0548 33.5506C29.4081 33.4398 29.7251 33.2362 29.9728 32.961C30.2205 32.6858 30.3898 32.3492 30.463 31.9862L30.4628 31.9865ZM29.4442 31.781C29.3971 32.0143 29.2706 32.2242 29.0862 32.3747C28.9018 32.5252 28.6709 32.6071 28.4329 32.6065C28.1948 32.6059 27.9644 32.5227 27.7808 32.3712C27.5972 32.2197 27.4718 32.0092 27.4259 31.7757C27.3801 31.5421 27.4167 31.2998 27.5295 31.0902C27.6423 30.8805 27.8243 30.7165 28.0444 30.626C28.2646 30.5355 28.5093 30.5241 28.7369 30.5938C28.9645 30.6636 29.1609 30.81 29.2926 31.0083C29.3677 31.1207 29.4198 31.2469 29.4458 31.3795C29.4718 31.5122 29.4713 31.6486 29.4442 31.7811V31.781Z" fill="#C3007D"/>
<path id="Vector_7" d="M12.4409 32.3344C12.4366 32.3061 12.0021 29.4974 11.911 28.5511C11.8395 27.8056 11.3482 27.2734 10.6876 27.2268L10.4384 27.2091C10.7506 26.0349 11.2209 24.7989 11.6727 23.9908C11.706 23.9313 11.7272 23.8658 11.7352 23.798C11.7432 23.7302 11.7377 23.6616 11.7192 23.5959C11.7006 23.5303 11.6693 23.4689 11.627 23.4154C11.5847 23.3618 11.5323 23.3171 11.4728 23.2838C11.4132 23.2505 11.3477 23.2293 11.2799 23.2213C11.2122 23.2134 11.1435 23.2188 11.0779 23.2374C11.0122 23.2559 10.9509 23.2873 10.8973 23.3295C10.8438 23.3718 10.7991 23.4242 10.7658 23.4838C10.2423 24.42 9.71824 25.8135 9.38433 27.1346L8.88958 27.0996C8.22844 27.0527 7.66631 27.5109 7.49182 28.2396C7.2852 29.1023 6.44341 31.882 6.43495 31.9099C6.42374 31.947 6.4167 31.9853 6.41394 32.0239C6.40169 32.197 6.42365 32.3707 6.47856 32.5353C6.53348 32.6999 6.62028 32.852 6.734 32.983C6.84772 33.114 6.98614 33.2213 7.14134 33.2988C7.29655 33.3763 7.4655 33.4225 7.63855 33.4347C7.77561 33.4437 7.91066 33.3981 8.01417 33.3078C8.11768 33.2175 8.18122 33.0899 8.19091 32.9529C8.20059 32.8159 8.15562 32.6806 8.06584 32.5767C7.97606 32.4727 7.84877 32.4086 7.71181 32.3982C7.64482 32.3934 7.58173 32.3649 7.53391 32.3177C7.48609 32.2706 7.45666 32.2079 7.45093 32.141C7.58727 31.6899 8.30526 29.3058 8.50268 28.482C8.51151 28.4449 8.59375 28.1207 8.81663 28.1364L10.6148 28.2636C10.835 28.2792 10.8734 28.6129 10.8771 28.6509C10.9637 29.5511 11.3323 31.9605 11.4032 32.4212C11.3881 32.4866 11.3502 32.5445 11.2962 32.5844C11.2423 32.6243 11.1758 32.6437 11.1089 32.6389C10.9714 32.6292 10.8357 32.6744 10.7317 32.7647C10.6276 32.855 10.5636 32.9829 10.5539 33.1204C10.5442 33.2578 10.5894 33.3935 10.6797 33.4976C10.77 33.6017 10.898 33.6656 11.0354 33.6754C11.0673 33.6776 11.0991 33.6788 11.1308 33.6788C11.4646 33.6782 11.7857 33.5512 12.0297 33.3234C12.2737 33.0957 12.4225 32.784 12.4461 32.4511C12.4488 32.4121 12.447 32.3729 12.4409 32.3344Z" fill="#C3007D"/>
</g>
</svg>
