<svg width="32" height="32" viewBox="0 0 32 32" fill="none" xmlns="http://www.w3.org/2000/svg">
<g id="view 1">
<g id="Group">
<g id="Group_2">
<path id="Vector" d="M31.7966 15.3772C31.5107 14.9861 24.6993 5.80176 15.9998 5.80176C7.30039 5.80176 0.488626 14.9861 0.203063 15.3768C-0.0676876 15.7478 -0.0676876 16.251 0.203063 16.622C0.488626 17.013 7.30039 26.1974 15.9998 26.1974C24.6993 26.1974 31.5107 17.013 31.7966 16.6223C32.0677 16.2513 32.0677 15.7478 31.7966 15.3772ZM15.9998 24.0875C9.59177 24.0875 4.0417 17.9917 2.39875 15.9988C4.03957 14.0043 9.57802 7.91164 15.9998 7.91164C22.4076 7.91164 27.9573 14.0064 29.6009 16.0003C27.9601 17.9948 22.4217 24.0875 15.9998 24.0875Z" fill="white"/>
</g>
</g>
<g id="Group_3">
<g id="Group_4">
<path id="Vector_2" d="M15.9996 9.6709C12.5095 9.6709 9.66992 12.5105 9.66992 16.0006C9.66992 19.4907 12.5095 22.3303 15.9996 22.3303C19.4898 22.3303 22.3293 19.4907 22.3293 16.0006C22.3293 12.5105 19.4898 9.6709 15.9996 9.6709ZM15.9996 20.2204C13.6727 20.2204 11.7799 18.3274 11.7799 16.0006C11.7799 13.6738 13.6728 11.7808 15.9996 11.7808C18.3264 11.7808 20.2194 13.6738 20.2194 16.0006C20.2194 18.3274 18.3265 20.2204 15.9996 20.2204Z" fill="white"/>
</g>
</g>
</g>
</svg>
