<svg width="26" height="26" viewBox="0 0 26 26" fill="none" xmlns="http://www.w3.org/2000/svg">
<path d="M17.3633 2.975C13.3969 -0.99134 6.94142 -0.99134 2.97508 2.975C-0.990392 6.94219 -0.990392 13.3968 2.97508 17.364C6.50721 20.8953 12.0083 21.2736 15.9721 18.5162C16.0555 18.9108 16.2464 19.2874 16.5533 19.5944L22.3296 25.3706C23.1713 26.2107 24.5315 26.2107 25.369 25.3706C26.2099 24.5297 26.2099 23.1695 25.369 22.3312L19.5928 16.5532C19.2875 16.2488 18.9101 16.0571 18.5154 15.9737C21.2746 12.0091 20.8962 6.50884 17.3633 2.975ZM15.5396 15.5404C12.5784 18.5016 7.7591 18.5016 4.79875 15.5404C1.83926 12.5791 1.83926 7.76074 4.79875 4.79953C7.7591 1.83918 12.5784 1.83918 15.5396 4.79953C18.5008 7.76074 18.5008 12.5791 15.5396 15.5404Z" fill="#212226"/>
</svg>
