<svg width="31" height="31" viewBox="0 0 31 31" fill="none" xmlns="http://www.w3.org/2000/svg">
<path d="M15.5 0C6.93988 0 0 6.93956 0 15.5C0 24.0604 6.93988 31 15.5 31C24.0601 31 31 24.0604 31 15.5C31 6.93956 24.0601 0 15.5 0ZM23.3624 17.1764C24.0849 17.882 24.8492 18.5461 25.4977 19.3247C25.785 19.6691 26.0559 20.0252 26.262 20.4257C26.5563 20.9969 26.2905 21.6233 25.7793 21.6572L22.6038 21.6566C21.7837 21.7244 21.1311 21.3936 20.5808 20.833C20.1416 20.3861 19.7341 19.9088 19.311 19.4468C19.1382 19.2571 18.9561 19.0786 18.7392 18.9381C18.3063 18.6565 17.9302 18.7427 17.6822 19.1949C17.4295 19.6551 17.3717 20.1651 17.3476 20.6772C17.3131 21.426 17.0873 21.6217 16.336 21.6569C14.7306 21.732 13.2074 21.4885 11.7917 20.6791C10.5429 19.9653 9.57623 18.9577 8.73391 17.817C7.09369 15.5932 5.83751 13.1526 4.70883 10.6418C4.4548 10.0763 4.64064 9.7738 5.26445 9.76207C6.30085 9.74209 7.33725 9.74462 8.37365 9.76112C8.79544 9.76777 9.07452 10.0091 9.23657 10.4071C9.79663 11.7851 10.4832 13.0961 11.3436 14.312C11.5729 14.6358 11.807 14.9586 12.1403 15.1873C12.5081 15.4397 12.7885 15.3563 12.962 14.9456C13.073 14.6846 13.1208 14.4056 13.145 14.1259C13.2274 13.1678 13.2372 12.21 13.0945 11.2558C13.0057 10.6586 12.6699 10.273 12.0746 10.1601C11.7714 10.1027 11.8158 9.9904 11.9633 9.81725C12.2192 9.51787 12.459 9.33266 12.9382 9.33266L16.5259 9.33203C17.0914 9.44303 17.2182 9.69674 17.295 10.2663L17.2982 14.2533C17.2915 14.4737 17.4088 15.127 17.8046 15.2713C18.1218 15.376 18.3311 15.1217 18.5207 14.9209C19.3811 14.0079 19.9941 12.9303 20.5431 11.8149C20.7854 11.323 20.9944 10.814 21.1973 10.3041C21.3483 9.92698 21.583 9.74145 22.0086 9.7478L25.4634 9.75192C25.5652 9.75192 25.6686 9.75287 25.7695 9.77031C26.3517 9.86989 26.5113 10.1204 26.3311 10.6884C26.0476 11.5808 25.4967 12.3242 24.9583 13.0695C24.3811 13.8674 23.7655 14.6374 23.194 15.4388C22.6688 16.1714 22.7104 16.5402 23.3624 17.1764Z" fill="#212226"/>
</svg>
