<svg width="11" height="16" viewBox="0 0 11 16" fill="none" xmlns="http://www.w3.org/2000/svg">
<g id="&#208;&#184;&#208;&#186;&#208;&#190;&#208;&#189;&#208;&#186;&#208;&#176; &#208;&#188;&#208;&#181;&#209;&#129;&#209;&#130;&#208;&#176;">
<path id="Vector" d="M5.54895 4.15472C4.4918 4.15472 3.63135 4.98522 3.63135 6.00556C3.63135 7.0259 4.4918 7.8564 5.54895 7.8564C6.6061 7.8564 7.46655 7.0259 7.46655 6.00556C7.46655 4.98522 6.6061 4.15472 5.54895 4.15472ZM5.54895 7.32759C4.79369 7.32759 4.17923 6.73452 4.17923 6.00556C4.17923 5.27659 4.79369 4.68353 5.54895 4.68353C6.30421 4.68353 6.91867 5.27659 6.91867 6.00556C6.91867 6.73452 6.30421 7.32759 5.54895 7.32759Z" fill="#ACACAC"/>
<path id="Vector_2" d="M9.21505 2.46701C8.22285 1.50933 6.90357 0.981842 5.50047 0.981842C4.09709 0.981842 2.77809 1.50933 1.78589 2.46701C-0.0503019 4.23906 -0.278491 7.57322 1.29171 9.59328L5.50047 15.4599L9.70293 9.60147C11.2794 7.57322 11.0512 4.23906 9.21505 2.46701ZM9.2586 9.29238L5.50047 14.5308L1.73631 9.28419C0.312116 7.45132 0.516198 4.44027 2.17351 2.84088C3.06216 1.98315 4.24365 1.51065 5.50047 1.51065C6.75729 1.51065 7.93878 1.98315 8.8277 2.84088C10.485 4.44027 10.6891 7.45132 9.2586 9.29238Z" fill="#ACACAC"/>
</g>
</svg>
